<svg width="12" height="12" viewBox="0 0 12 12" fill="none" xmlns="http://www.w3.org/2000/svg">
<path fill-rule="evenodd" clip-rule="evenodd" d="M3.625 5C3.625 4.37011 3.87522 3.76602 4.32062 3.32062C4.76602 2.87522 5.37011 2.625 6 2.625C6.62989 2.625 7.23398 2.87522 7.67938 3.32062C8.12478 3.76602 8.375 4.37011 8.375 5C8.375 5.62989 8.12478 6.23398 7.67938 6.67938C7.23398 7.12478 6.62989 7.375 6 7.375C5.37011 7.375 4.76602 7.12478 4.32062 6.67938C3.87522 6.23398 3.625 5.62989 3.625 5ZM6 3.375C5.56902 3.375 5.1557 3.5462 4.85095 3.85095C4.54621 4.1557 4.375 4.56902 4.375 5C4.375 5.43098 4.54621 5.8443 4.85095 6.14905C5.1557 6.45379 5.56902 6.625 6 6.625C6.43098 6.625 6.8443 6.45379 7.14905 6.14905C7.45379 5.8443 7.625 5.43098 7.625 5C7.625 4.56902 7.45379 4.1557 7.14905 3.85095C6.8443 3.5462 6.43098 3.375 6 3.375Z" fill="#4F4F4F"/>
<path fill-rule="evenodd" clip-rule="evenodd" d="M1.76194 4.4285C1.84741 3.3919 2.31956 2.42534 3.08465 1.72074C3.84974 1.01613 4.85183 0.624997 5.89194 0.625H6.10794C7.14806 0.624997 8.15014 1.01613 8.91524 1.72074C9.68033 2.42534 10.1525 3.3919 10.2379 4.4285C10.333 5.58314 9.97634 6.72963 9.24294 7.6265L6.84644 10.557C6.74388 10.6824 6.61474 10.7835 6.46834 10.8529C6.32194 10.9223 6.16196 10.9583 5.99994 10.9583C5.83793 10.9583 5.67794 10.9223 5.53155 10.8529C5.38515 10.7835 5.256 10.6824 5.15344 10.557L2.75694 7.6265C2.0235 6.72966 1.66679 5.58315 1.76194 4.4285ZM5.89194 1.375C5.04019 1.37513 4.21961 1.69551 3.5931 2.27256C2.9666 2.84961 2.57996 3.64112 2.50994 4.49C2.43074 5.45093 2.72759 6.40509 3.33794 7.1515L5.73444 10.0825C5.76666 10.1219 5.80724 10.1537 5.85324 10.1755C5.89925 10.1973 5.94953 10.2087 6.00044 10.2087C6.05136 10.2087 6.10164 10.1973 6.14765 10.1755C6.19365 10.1537 6.23423 10.1219 6.26644 10.0825L8.66294 7.1515C9.27294 6.40494 9.56942 5.4508 9.48994 4.49C9.41992 3.64104 9.03321 2.84945 8.4066 2.27239C7.77999 1.69533 6.95929 1.375 6.10744 1.375H5.89144H5.89194Z" fill="#4F4F4F"/>
</svg>
