<svg width="12" height="12" viewBox="0 0 12 12" fill="none" xmlns="http://www.w3.org/2000/svg">
<path fill-rule="evenodd" clip-rule="evenodd" d="M5.193 4.17848C5.1361 4.14432 5.07115 4.12588 5.00479 4.12503C4.93843 4.12418 4.87304 4.14096 4.81528 4.17365C4.75752 4.20634 4.70948 4.25377 4.67605 4.31111C4.64262 4.36844 4.625 4.43361 4.625 4.49998V7.49998C4.625 7.56634 4.64262 7.63152 4.67605 7.68885C4.70948 7.74618 4.75752 7.79362 4.81528 7.82631C4.87304 7.859 4.93843 7.87577 5.00479 7.87493C5.07115 7.87408 5.1361 7.85563 5.193 7.82148L7.693 6.32148C7.7485 6.28815 7.79443 6.24103 7.82632 6.18469C7.85821 6.12835 7.87496 6.06472 7.87496 5.99998C7.87496 5.93524 7.85821 5.87161 7.82632 5.81527C7.79443 5.75893 7.7485 5.7118 7.693 5.67848L5.193 4.17848ZM6.771 5.99998L5.375 6.83748V5.16248L6.771 5.99998Z" fill="#4F4F4F"/>
<path fill-rule="evenodd" clip-rule="evenodd" d="M8.51495 2.32038C6.84084 2.18943 5.15905 2.18943 3.48495 2.32038L2.36445 2.40838C2.03336 2.43419 1.72044 2.57005 1.47551 2.79431C1.23059 3.01858 1.06775 3.31835 1.01295 3.64588C0.752521 5.20441 0.752521 6.79536 1.01295 8.35388C1.06775 8.68142 1.23059 8.98119 1.47551 9.20546C1.72044 9.42972 2.03336 9.56558 2.36445 9.59138L3.48445 9.67938C5.15895 9.81038 6.84095 9.81038 8.51545 9.67938L9.63545 9.59138C9.96653 9.56558 10.2795 9.42972 10.5244 9.20546C10.7693 8.98119 10.9321 8.68142 10.9869 8.35388C11.2469 6.79538 11.2469 5.20438 10.9869 3.64588C10.9321 3.31835 10.7693 3.01858 10.5244 2.79431C10.2795 2.57005 9.96653 2.43419 9.63545 2.40838L8.51495 2.32038ZM3.54345 3.06838C5.17895 2.94042 6.82194 2.94042 8.45745 3.06838L9.57745 3.15588C9.91545 3.18238 10.1919 3.43588 10.2474 3.76988C10.4941 5.24632 10.4941 6.75345 10.2474 8.22988C10.2204 8.39235 10.1397 8.54107 10.0183 8.65235C9.89683 8.76362 9.74165 8.83105 9.57745 8.84388L8.45745 8.93139C6.82195 9.05938 5.17894 9.05938 3.54345 8.93139L2.42345 8.84388C2.25924 8.83105 2.10406 8.76362 1.98264 8.65235C1.86121 8.54107 1.78053 8.39235 1.75345 8.22988C1.50678 6.75345 1.50678 5.24632 1.75345 3.76988C1.78053 3.60742 1.86121 3.4587 1.98264 3.34742C2.10406 3.23615 2.25924 3.16872 2.42345 3.15588L3.54345 3.06838Z" fill="#4F4F4F"/>
</svg>
