<svg width="12" height="24" viewBox="0 0 12 24" fill="none" xmlns="http://www.w3.org/2000/svg">
<path fill-rule="evenodd" clip-rule="evenodd" d="M8.86173 10.1505C8.95027 10.2391 9 10.3593 9 10.4846C9 10.6099 8.95027 10.73 8.86173 10.8187L6.34021 13.3402C6.25156 13.4287 6.13139 13.4785 6.0061 13.4785C5.88082 13.4785 5.76065 13.4287 5.672 13.3402L3.15048 10.8187C3.10403 10.7754 3.06677 10.7232 3.04093 10.6652C3.01509 10.6072 3.00119 10.5446 3.00007 10.4811C2.99895 10.4176 3.01063 10.3546 3.03441 10.2957C3.05819 10.2368 3.09358 10.1834 3.13848 10.1385C3.18337 10.0936 3.23685 10.0582 3.29572 10.0344C3.35459 10.0106 3.41765 9.99895 3.48113 10.0001C3.54461 10.0012 3.60721 10.0151 3.66521 10.0409C3.7232 10.0668 3.7754 10.104 3.81868 10.1505L6.0061 12.3379L8.19353 10.1505C8.28218 10.0619 8.40234 10.0122 8.52763 10.0122C8.65292 10.0122 8.77309 10.0619 8.86173 10.1505Z" fill="#333333"/>
</svg>
