<svg width="13" height="12" viewBox="0 0 13 12" fill="none" xmlns="http://www.w3.org/2000/svg">
<path d="M8.33325 3.5C8.33325 3.36739 8.38593 3.24021 8.4797 3.14645C8.57347 3.05268 8.70064 3 8.83325 3C8.96586 3 9.09304 3.05268 9.18681 3.14645C9.28057 3.24021 9.33325 3.36739 9.33325 3.5C9.33325 3.63261 9.28057 3.75979 9.18681 3.85355C9.09304 3.94732 8.96586 4 8.83325 4C8.70064 4 8.57347 3.94732 8.4797 3.85355C8.38593 3.75979 8.33325 3.63261 8.33325 3.5Z" fill="#4F4F4F"/>
<path fill-rule="evenodd" clip-rule="evenodd" d="M6.33325 3.625C5.70336 3.625 5.09927 3.87522 4.65387 4.32062C4.20847 4.76602 3.95825 5.37011 3.95825 6C3.95825 6.62989 4.20847 7.23398 4.65387 7.67938C5.09927 8.12478 5.70336 8.375 6.33325 8.375C6.96314 8.375 7.56723 8.12478 8.01263 7.67938C8.45803 7.23398 8.70825 6.62989 8.70825 6C8.70825 5.37011 8.45803 4.76602 8.01263 4.32062C7.56723 3.87522 6.96314 3.625 6.33325 3.625ZM4.70825 6C4.70825 5.56902 4.87946 5.1557 5.1842 4.85095C5.48895 4.54621 5.90228 4.375 6.33325 4.375C6.76423 4.375 7.17755 4.54621 7.4823 4.85095C7.78705 5.1557 7.95825 5.56902 7.95825 6C7.95825 6.43098 7.78705 6.8443 7.4823 7.14905C7.17755 7.45379 6.76423 7.625 6.33325 7.625C5.90228 7.625 5.48895 7.45379 5.1842 7.14905C4.87946 6.8443 4.70825 6.43098 4.70825 6Z" fill="#4F4F4F"/>
<path fill-rule="evenodd" clip-rule="evenodd" d="M8.96228 1.41627C7.21496 1.22257 5.45159 1.22257 3.70428 1.41627C2.69828 1.52877 1.88578 2.32127 1.76778 3.33227C1.56048 5.10456 1.56048 6.89498 1.76778 8.66727C1.88578 9.67827 2.69778 10.4708 3.70428 10.5833C5.45161 10.7768 7.21495 10.7768 8.96228 10.5833C9.96828 10.4708 10.7808 9.67827 10.8988 8.66727C11.1061 6.89498 11.1061 5.10456 10.8988 3.33227C10.7808 2.32127 9.96878 1.52877 8.96228 1.41627ZM3.78728 2.16127C5.47943 1.97371 7.18713 1.97371 8.87928 2.16127C9.54428 2.23627 10.0768 2.76077 10.1543 3.41977C10.3548 5.13393 10.3548 6.86561 10.1543 8.57977C10.1142 8.90229 9.96655 9.20188 9.7352 9.43015C9.50385 9.65841 9.20231 9.80202 8.87928 9.83777C7.18713 10.0253 5.47943 10.0253 3.78728 9.83777C3.46425 9.80202 3.16271 9.65841 2.93136 9.43015C2.70001 9.20188 2.55237 8.90229 2.51228 8.57977C2.3118 6.86561 2.3118 5.13393 2.51228 3.41977C2.55237 3.09725 2.70001 2.79766 2.93136 2.5694C3.16271 2.34113 3.46425 2.19703 3.78728 2.16127Z" fill="#4F4F4F"/>
</svg>
