<svg width="12" height="12" viewBox="0 0 12 12" fill="none" xmlns="http://www.w3.org/2000/svg">
<path d="M4.44311 3.58502C4.53461 3.58752 4.63611 3.59252 4.73261 3.80652C4.79661 3.94902 4.90411 4.21152 4.99211 4.42552C5.06061 4.59202 5.11661 4.72902 5.13061 4.75702C5.16261 4.82102 5.18261 4.89452 5.14061 4.98102L5.12661 5.01002C5.09795 5.0772 5.05917 5.13959 5.01161 5.19502C4.98744 5.22307 4.96361 5.25141 4.94011 5.28002C4.89761 5.33202 4.85511 5.38302 4.81911 5.41902C4.75461 5.48302 4.68811 5.55202 4.76211 5.68002C4.83661 5.80802 5.09611 6.22902 5.47961 6.56852C5.7603 6.82123 6.0821 7.02415 6.43111 7.16852C6.46611 7.18352 6.49461 7.19602 6.51611 7.20652C6.64461 7.27052 6.72111 7.26052 6.79511 7.17452C6.86961 7.08802 7.11661 6.80002 7.20361 6.67202C7.28761 6.54402 7.37361 6.56402 7.49261 6.60802C7.61161 6.65252 8.24461 6.96302 8.37311 7.02652L8.44461 7.06152C8.53411 7.10402 8.59461 7.13352 8.62061 7.17652C8.65261 7.23102 8.65261 7.48652 8.54661 7.78752C8.43761 8.08752 7.91311 8.37552 7.67561 8.39752L7.60811 8.40552C7.39011 8.43152 7.11411 8.46552 6.13011 8.07802C4.91711 7.60102 4.11661 6.41802 3.95511 6.17852C3.94649 6.16571 3.93766 6.15304 3.92861 6.14052L3.92561 6.13652C3.85211 6.03802 3.40161 5.43552 3.40161 4.81352C3.40161 4.21852 3.69511 3.90852 3.82861 3.76752L3.85211 3.74252C3.89532 3.69371 3.94812 3.65431 4.00722 3.62678C4.06631 3.59926 4.13044 3.58419 4.19561 3.58252C4.28211 3.58252 4.36911 3.58252 4.44311 3.58502Z" fill="#4F4F4F"/>
<path fill-rule="evenodd" clip-rule="evenodd" d="M1.09199 10.6655C1.08257 10.6994 1.08226 10.7352 1.09108 10.7693C1.09991 10.8033 1.11756 10.8344 1.14226 10.8595C1.16696 10.8845 1.19783 10.9026 1.23176 10.912C1.26568 10.9213 1.30147 10.9215 1.33549 10.9125L3.63899 10.3105C4.36983 10.7064 5.18783 10.9138 6.01899 10.914H6.02099C8.76399 10.914 11 8.69052 11 5.95802C11.0017 5.30629 10.8738 4.66072 10.6237 4.0589C10.3735 3.45707 10.0062 2.91102 9.54299 2.45252C9.08069 1.99017 8.53151 1.6238 7.92706 1.37452C7.32261 1.12524 6.67482 0.997968 6.02099 1.00002C3.27799 1.00002 1.04199 3.22302 1.04199 5.95552C1.04199 6.82502 1.27099 7.67902 1.70699 8.43252L1.09199 10.6655ZM2.43049 8.63152C2.45693 8.53557 2.464 8.43531 2.4513 8.33659C2.43859 8.23787 2.40636 8.14266 2.35649 8.05652C1.98656 7.41814 1.79182 6.69335 1.79199 5.95552C1.79199 3.64052 3.68849 1.75002 6.02099 1.75002C7.15599 1.75002 8.21499 2.18852 9.01399 2.98402C9.40716 3.37284 9.71895 3.83608 9.93116 4.34669C10.1434 4.8573 10.2518 5.40507 10.25 5.95802C10.25 8.27302 8.35349 10.164 6.02099 10.164H6.01849C5.31234 10.1637 4.61741 9.98735 3.99649 9.65102C3.82914 9.56042 3.6336 9.53683 3.44949 9.58502L2.06849 9.94553L2.43049 8.63152Z" fill="#4F4F4F"/>
</svg>
