<svg width="13" height="12" viewBox="0 0 13 12" fill="none" xmlns="http://www.w3.org/2000/svg">
<path fill-rule="evenodd" clip-rule="evenodd" d="M5.91075 1.894C6.40297 1.4017 7.07059 1.12508 7.76675 1.125H9.11675C9.2162 1.125 9.31159 1.16451 9.38191 1.23483C9.45224 1.30516 9.49175 1.40054 9.49175 1.5V3.3C9.49175 3.39946 9.45224 3.49484 9.38191 3.56517C9.31159 3.63549 9.2162 3.675 9.11675 3.675H7.76675C7.7569 3.675 7.74715 3.67694 7.73805 3.68071C7.72895 3.68448 7.72068 3.69 7.71372 3.69697C7.70675 3.70393 7.70123 3.7122 7.69746 3.7213C7.69369 3.7304 7.69175 3.74015 7.69175 3.75V4.725H9.11675C9.17376 4.72497 9.23002 4.73794 9.28127 4.76292C9.33252 4.78789 9.37739 4.82423 9.41249 4.86916C9.44758 4.91409 9.47197 4.96642 9.4838 5.02219C9.49562 5.07796 9.49458 5.13569 9.48075 5.191L9.03075 6.991C9.01045 7.07216 8.96359 7.1442 8.89763 7.19566C8.83168 7.24712 8.75041 7.27505 8.66675 7.275H7.69175V10.5C7.69175 10.5995 7.65224 10.6948 7.58191 10.7652C7.51159 10.8355 7.4162 10.875 7.31675 10.875H5.51675C5.41729 10.875 5.32191 10.8355 5.25158 10.7652C5.18126 10.6948 5.14175 10.5995 5.14175 10.5V7.275H4.16675C4.06729 7.275 3.97191 7.23549 3.90158 7.16516C3.83126 7.09484 3.79175 6.99946 3.79175 6.9V5.1C3.79175 5.05075 3.80145 5.00199 3.82029 4.95649C3.83914 4.911 3.86676 4.86966 3.90158 4.83484C3.9364 4.80001 3.97774 4.77239 4.02324 4.75355C4.06874 4.7347 4.1175 4.725 4.16675 4.725H5.14175V3.75C5.14183 3.05384 5.41845 2.38622 5.91075 1.894ZM7.76675 1.875C7.26947 1.875 6.79255 2.07254 6.44092 2.42417C6.08929 2.77581 5.89175 3.25272 5.89175 3.75V5.1C5.89175 5.19946 5.85224 5.29484 5.78191 5.36517C5.71159 5.43549 5.6162 5.475 5.51675 5.475H4.54175V6.525H5.51675C5.6162 6.525 5.71159 6.56451 5.78191 6.63483C5.85224 6.70516 5.89175 6.80054 5.89175 6.9V10.125H6.94175V6.9C6.94175 6.80054 6.98126 6.70516 7.05158 6.63483C7.12191 6.56451 7.21729 6.525 7.31675 6.525H8.37375L8.63625 5.475H7.31675C7.21729 5.475 7.12191 5.43549 7.05158 5.36517C6.98126 5.29484 6.94175 5.19946 6.94175 5.1V3.75C6.94175 3.5312 7.02867 3.32135 7.18338 3.16664C7.3381 3.01192 7.54794 2.925 7.76675 2.925H8.74175V1.875H7.76675Z" fill="#4F4F4F"/>
</svg>
