<svg width="48" height="48" viewBox="0 0 48 48" fill="none" xmlns="http://www.w3.org/2000/svg">
<path fill-rule="evenodd" clip-rule="evenodd" d="M19.9401 14.9401C20.2213 14.6592 20.6026 14.5015 21.0001 14.5015C21.3976 14.5015 21.7788 14.6592 22.0601 14.9401L30.0601 22.9401C30.341 23.2214 30.4987 23.6026 30.4987 24.0001C30.4987 24.3976 30.341 24.7789 30.0601 25.0601L22.0601 33.0601C21.9227 33.2075 21.7571 33.3257 21.5731 33.4077C21.3891 33.4897 21.1905 33.5338 20.9891 33.5373C20.7877 33.5409 20.5876 33.5038 20.4009 33.4284C20.2141 33.3529 20.0444 33.2407 19.902 33.0982C19.7596 32.9558 19.6473 32.7861 19.5718 32.5993C19.4964 32.4126 19.4593 32.2125 19.4629 32.0111C19.4664 31.8097 19.5105 31.6111 19.5925 31.4271C19.6745 31.2431 19.7927 31.0775 19.9401 30.9401L26.8801 24.0001L19.9401 17.0601C19.6592 16.7789 19.5014 16.3976 19.5014 16.0001C19.5014 15.6026 19.6592 15.2214 19.9401 14.9401Z" fill="#FEFEFE"/>
<rect x="0.5" y="0.5" width="47" height="47" rx="23.5" stroke="#FEFEFE"/>
</svg>
