<svg width="12" height="12" viewBox="0 0 12 12" fill="none" xmlns="http://www.w3.org/2000/svg">
<path d="M2.50006 4.93C3.45998 7.02041 5.16564 8.67722 7.28306 9.576L7.62306 9.7275C7.99957 9.89516 8.42318 9.92455 8.81924 9.81049C9.2153 9.69643 9.55839 9.44624 9.78806 9.104L10.2326 8.442C10.3021 8.33818 10.3303 8.21208 10.3115 8.08853C10.2927 7.96499 10.2283 7.85295 10.1311 7.7745L8.62506 6.5595C8.57261 6.51722 8.51216 6.48597 8.44733 6.46763C8.3825 6.44929 8.31464 6.44425 8.24781 6.45279C8.18098 6.46134 8.11657 6.4833 8.05845 6.51736C8.00032 6.55142 7.94968 6.59688 7.90956 6.651L7.44356 7.2795C6.24736 6.68872 5.27912 5.72031 4.68856 4.524L5.31656 4.058C5.37068 4.01788 5.41614 3.96724 5.4502 3.90911C5.48426 3.85099 5.50622 3.78658 5.51477 3.71975C5.52331 3.65292 5.51827 3.58506 5.49993 3.52023C5.48159 3.4554 5.45034 3.39495 5.40806 3.3425L4.19306 1.8365C4.11461 1.73923 4.00257 1.67486 3.87903 1.65607C3.75548 1.63729 3.62938 1.66545 3.52556 1.735L2.85906 2.182C2.51476 2.41289 2.2636 2.75851 2.15033 3.15729C2.03706 3.55606 2.06904 3.9821 2.24056 4.3595L2.50006 4.93Z" fill="#4F4F4F"/>
</svg>
