<svg width="48" height="48" viewBox="0 0 48 48" fill="none" xmlns="http://www.w3.org/2000/svg">
<path fill-rule="evenodd" clip-rule="evenodd" d="M28.06 14.9401C28.3409 15.2214 28.4987 15.6026 28.4987 16.0001C28.4987 16.3976 28.3409 16.7789 28.06 17.0601L21.12 24.0001L28.06 30.9401C28.2074 31.0775 28.3256 31.2431 28.4076 31.4271C28.4896 31.6111 28.5337 31.8097 28.5372 32.0111C28.5408 32.2125 28.5037 32.4126 28.4283 32.5993C28.3528 32.7861 28.2405 32.9558 28.0981 33.0982C27.9557 33.2407 27.786 33.3529 27.5992 33.4284C27.4124 33.5038 27.2124 33.5409 27.011 33.5373C26.8096 33.5338 26.6109 33.4897 26.4269 33.4077C26.2429 33.3257 26.0773 33.2075 25.94 33.0601L17.94 25.0601C17.6591 24.7789 17.5013 24.3976 17.5013 24.0001C17.5013 23.6026 17.6591 23.2214 17.94 22.9401L25.94 14.9401C26.2213 14.6592 26.6025 14.5015 27 14.5015C27.3975 14.5015 27.7788 14.6592 28.06 14.9401Z" fill="#FEFEFE"/>
<rect x="0.5" y="0.5" width="47" height="47" rx="23.5" stroke="#FEFEFE"/>
</svg>
