<svg width="121" height="85" viewBox="0 0 121 85" fill="none" xmlns="http://www.w3.org/2000/svg">
<rect width="121" height="85" fill="#1E1E1E"/>
<g id="Phone" clip-path="url(#clip0_0_1)">
<rect width="375" height="3391" transform="translate(-127 -3100)" fill="white"/>
<g id="Footer">
<rect width="375" height="270" transform="translate(-127 -67)" fill="#78563D"/>
<g id="Logo">
<path id="309422770_519067693560014_5922208825798366023_n 1 (Traced)" fill-rule="evenodd" clip-rule="evenodd" d="M37.7279 22.762L15.0395 44.5953L16.6798 44.6105L18.3202 44.6256L28.9436 34.4103C34.7865 28.7919 39.5848 24.195 39.6065 24.195C39.6282 24.195 40.7337 25.2408 42.0631 26.5189L44.4803 28.8428L44.7279 28.616C45.3525 28.0438 46.085 27.3068 46.0838 27.2517C46.0831 27.2183 45.0149 26.1653 43.7101 24.9117C42.4053 23.6582 41.3377 22.6007 41.3377 22.5618C41.3377 22.4607 60.3786 4.16572 60.4839 4.16572C60.5319 4.16572 61.6383 5.19286 62.9427 6.44826C64.247 7.70366 65.3361 8.73081 65.3628 8.73081C65.4233 8.73081 66.9735 7.24692 66.9735 7.18906C66.9735 7.13257 60.5025 0.910924 60.4541 0.92091C60.4333 0.92519 50.2065 10.7537 37.7279 22.762ZM59.0662 18.0357C53.8196 23.0858 49.5269 27.2323 49.5269 27.2501C49.5269 27.2875 51.0586 28.7601 51.0974 28.7601C51.1116 28.7601 55.0624 24.9725 59.8768 20.3433C64.6913 15.714 68.6446 11.9264 68.662 11.9264C68.6795 11.9264 76.3317 19.2714 85.6671 28.2486L102.64 44.5707L104.241 44.583C105.122 44.5898 105.843 44.591 105.843 44.5858C105.842 44.5513 68.6778 8.84579 68.6456 8.84927C68.6235 8.85167 64.3127 12.9855 59.0662 18.0357ZM46.9842 29.6575L46.1921 30.4292L53.542 37.4983L60.8919 44.5674L62.5086 44.5813C63.3977 44.589 64.1246 44.5953 64.124 44.5953C64.1233 44.5953 60.4448 41.0607 55.9495 36.7406L47.7764 28.8858L46.9842 29.6575ZM37.9674 38.3326L31.4559 44.5953H33.0556H34.6553L40.3702 39.1C43.5134 36.0776 46.0851 33.5867 46.0851 33.5648C46.0851 33.5428 45.9249 33.375 45.7291 33.1919C45.5332 33.0089 45.373 32.8356 45.373 32.8068C45.373 32.7781 45.333 32.7546 45.284 32.7546C45.235 32.7546 45.195 32.7161 45.195 32.669C45.195 32.6219 45.1736 32.5834 45.1474 32.5834C45.1213 32.5834 44.9811 32.4684 44.8359 32.3278C44.6907 32.1871 44.5509 32.0716 44.5254 32.071C44.4998 32.0703 41.5487 34.8881 37.9674 38.3326ZM97.2083 56.333C96.669 56.3837 95.8248 56.5266 95.606 56.6043C95.5407 56.6275 95.3405 56.6919 95.161 56.7474C94.8702 56.8374 94.4799 57.0083 94.0315 57.2421C93.5488 57.4938 92.9123 58.0636 92.6011 58.5229C92.4146 58.798 92.1939 59.2519 92.1939 59.3602C92.1939 59.4027 92.1702 59.462 92.1415 59.4917C92.0379 59.5989 91.9318 60.2986 91.9342 60.8584C91.938 61.7403 92.0996 62.3106 92.5241 62.9412C92.8111 63.3676 93.0049 63.5738 93.3807 63.8528C93.5276 63.9618 93.6611 64.0645 93.6774 64.081C93.7336 64.1379 93.9446 64.2571 94.0483 64.2906C94.1054 64.309 94.1521 64.3419 94.1521 64.3636C94.1521 64.3853 94.2987 64.4658 94.4779 64.5424C94.6571 64.619 94.804 64.701 94.8043 64.7245C94.8046 64.748 94.8451 64.7673 94.8942 64.7673C94.9434 64.7673 95.118 64.8297 95.2824 64.9059C95.4468 64.9822 95.6603 65.0613 95.7568 65.0816C95.8534 65.102 95.9324 65.1424 95.9324 65.1712C95.9324 65.2002 95.9849 65.2238 96.0491 65.2238C96.1132 65.2238 96.2534 65.2598 96.3606 65.3038C96.4678 65.3478 96.7157 65.4284 96.9116 65.483C97.1074 65.5375 97.321 65.6006 97.3863 65.6232C97.4516 65.6458 97.6518 65.7047 97.8314 65.7541C98.6595 65.982 99.4131 66.2075 99.5069 66.2554C99.5636 66.2843 99.6397 66.308 99.676 66.308C99.7123 66.308 99.8396 66.3491 99.9587 66.3994C100.078 66.4497 100.229 66.5118 100.294 66.5375C100.508 66.6218 101.3 66.9937 101.418 67.0653C101.65 67.2065 102.198 67.7687 102.293 67.9628C102.346 68.0727 102.422 68.2669 102.461 68.3944L102.531 68.6262L102.502 68.965C102.438 69.7142 102.264 70.1 101.782 70.5639C101.51 70.8255 100.928 71.1584 100.742 71.1584C100.675 71.1584 100.62 71.1777 100.62 71.2012C100.62 71.2247 100.413 71.2908 100.16 71.348L99.7006 71.4519L98.874 71.4909L98.0474 71.5298L97.3904 71.4654C96.729 71.4006 96.1224 71.2999 95.9027 71.2184C95.8375 71.1942 95.6238 71.1271 95.428 71.0692C95.2322 71.0114 95.0319 70.9447 94.9829 70.9211C94.934 70.8974 94.6936 70.7861 94.4489 70.6736C93.9401 70.4399 93.8806 70.4065 93.4707 70.1249L93.1708 69.9189L93.0977 69.9941C93.0575 70.0355 93.0247 70.0962 93.0247 70.1289C93.0247 70.1616 93.0033 70.1883 92.9772 70.1883C92.9512 70.1883 92.8644 70.2904 92.7844 70.415C92.7044 70.5397 92.6189 70.6424 92.5944 70.6433C92.57 70.6441 92.5499 70.6833 92.5499 70.7304C92.5499 70.7775 92.5239 70.816 92.4921 70.816C92.4603 70.816 92.3963 70.8866 92.3498 70.9729C92.3034 71.0593 92.1829 71.2197 92.0822 71.3296C91.8723 71.5585 91.8544 71.6552 92.001 71.7673C92.2815 71.9819 92.9712 72.4118 93.262 72.5532C93.4415 72.6405 93.639 72.7372 93.7009 72.7683C93.8693 72.8526 94.5719 73.1066 94.7752 73.1567C94.8732 73.1807 95.1135 73.2437 95.3093 73.2967C96.8638 73.717 99.6008 73.748 101.097 73.3623C101.461 73.2684 101.779 73.1704 101.956 73.097C102.5 72.8713 102.672 72.7938 102.697 72.7631C102.714 72.7436 102.819 72.6785 102.931 72.6185C103.188 72.4803 103.344 72.3565 103.808 71.9207C104.013 71.7279 104.181 71.5418 104.181 71.507C104.181 71.4722 104.206 71.4437 104.236 71.4437C104.267 71.4437 104.31 71.3859 104.333 71.3153C104.356 71.2447 104.392 71.1741 104.412 71.1584C104.433 71.1427 104.522 70.9857 104.61 70.8095C104.776 70.4775 104.859 70.2107 104.962 69.6748L105.023 69.3609L104.997 68.5165L104.971 67.6722L104.902 67.6064C104.865 67.5702 104.834 67.488 104.833 67.4236C104.833 67.3593 104.793 67.2331 104.744 67.1432C104.696 67.0532 104.656 66.9557 104.656 66.9265C104.656 66.8161 104.215 66.2174 103.902 65.901C103.722 65.7202 103.358 65.4314 103.091 65.2592C102.61 64.9478 101.93 64.5961 101.811 64.5961C101.776 64.5961 101.748 64.5704 101.748 64.539C101.748 64.5076 101.723 64.482 101.692 64.482C101.662 64.482 101.562 64.4524 101.47 64.4163C101.214 64.3158 100.368 64.0233 100.235 63.9892C100.169 63.9725 100.063 63.9393 99.9973 63.9155C99.6742 63.7973 99.2563 63.6831 99.1473 63.6831C99.0801 63.6831 99.0106 63.6604 98.9927 63.6326C98.9749 63.6048 98.8359 63.5641 98.6838 63.5422C98.5318 63.5203 98.3645 63.4803 98.3122 63.4534C98.2599 63.4265 98.0569 63.3621 97.861 63.3103C97.6652 63.2586 97.4425 63.1923 97.3661 63.1632C97.2896 63.134 97.0626 63.0585 96.8616 62.9953C96.5255 62.8897 95.969 62.66 95.7544 62.5383C95.7054 62.5106 95.5761 62.4446 95.467 62.3917C95.2288 62.2762 94.6269 61.7099 94.6269 61.6013C94.6269 61.5589 94.5935 61.5135 94.5527 61.5004L94.4785 61.4766V60.8783V60.2801L94.6493 59.9549L94.82 59.6297L95.1537 59.3361C95.6284 58.9184 96.1663 58.6945 97.1192 58.5179L97.5643 58.4354L98.4299 58.4344L99.2956 58.4332L99.8541 58.5145C100.496 58.608 100.827 58.6827 101.451 58.8749C101.956 59.0305 102.965 59.4907 103.14 59.6449C103.204 59.7013 103.283 59.7385 103.317 59.7278C103.385 59.706 104.003 58.8471 104.003 58.7742C104.003 58.7488 104.023 58.7195 104.047 58.709C104.12 58.6782 104.596 57.9654 104.596 57.8883C104.596 57.8495 104.563 57.8019 104.522 57.7825C104.481 57.7631 104.368 57.697 104.27 57.6356C103.98 57.4542 103.049 57.0323 102.697 56.923C102.518 56.8673 102.33 56.8022 102.28 56.7785C102.229 56.7548 102.069 56.7165 101.924 56.6934C101.778 56.6702 101.632 56.6319 101.6 56.6082C101.567 56.5845 101.42 56.5508 101.273 56.5334C101.126 56.516 100.859 56.4751 100.68 56.4425C99.7868 56.2804 98.2758 56.2327 97.2083 56.333ZM112.697 56.3292C112.152 56.3843 111.308 56.5288 111.094 56.6037C111.029 56.6265 110.815 56.6987 110.62 56.7641C110.02 56.9641 109.851 57.0322 109.77 57.1065C109.727 57.1457 109.653 57.1778 109.607 57.1778C109.56 57.1778 109.522 57.2035 109.522 57.2349C109.522 57.2663 109.493 57.2919 109.458 57.2919C109.361 57.2919 108.751 57.7601 108.482 58.0414C108.219 58.3155 107.86 58.8332 107.86 58.9375C107.86 58.974 107.839 59.0039 107.813 59.0039C107.767 59.0039 107.646 59.3383 107.504 59.8551C107.465 59.9937 107.421 60.3403 107.404 60.6254L107.374 61.1437L107.436 61.4576C107.591 62.2444 107.716 62.5599 108.066 63.0518C108.285 63.3595 108.906 63.9538 109.056 63.9998C109.116 64.0182 109.166 64.0571 109.166 64.0863C109.166 64.1156 109.206 64.1396 109.255 64.1396C109.304 64.1396 109.344 64.1647 109.344 64.1956C109.344 64.2263 109.41 64.2676 109.492 64.2873C109.574 64.307 109.64 64.3411 109.64 64.3631C109.64 64.3851 109.787 64.4658 109.966 64.5424C110.145 64.619 110.292 64.6982 110.293 64.7183C110.293 64.7384 110.361 64.7712 110.443 64.7911C110.526 64.811 110.737 64.8908 110.914 64.9685C111.091 65.0462 111.277 65.1097 111.328 65.1097C111.379 65.1097 111.421 65.1353 111.421 65.1667C111.421 65.1981 111.473 65.2238 111.537 65.2238C111.601 65.2238 111.742 65.26 111.849 65.3042C111.956 65.3485 112.284 65.4541 112.578 65.5389C112.872 65.6237 113.22 65.7287 113.351 65.7723C113.483 65.8158 113.636 65.8515 113.691 65.8515C113.745 65.8515 113.878 65.8875 113.985 65.9315C114.092 65.9755 114.34 66.0557 114.536 66.1098C114.732 66.1638 114.939 66.2306 114.995 66.258C115.052 66.2855 115.128 66.308 115.164 66.308C115.201 66.308 115.314 66.3435 115.417 66.3868C115.52 66.4302 115.711 66.5091 115.842 66.5622C116.538 66.8454 117.161 67.2163 117.449 67.5187C117.518 67.5903 117.651 67.7645 117.746 67.9058L117.919 68.1626L117.918 68.9044L117.918 69.6462L117.721 69.9836C117.612 70.1692 117.402 70.4352 117.252 70.5748C116.972 70.8367 116.4 71.1584 116.214 71.1584C116.156 71.1584 116.109 71.1783 116.109 71.2026C116.109 71.2269 115.881 71.2948 115.603 71.3534L115.097 71.4601L114.312 71.4947L113.527 71.5293L112.875 71.4652C112.216 71.4005 111.61 71.2996 111.391 71.2184C111.326 71.1942 111.112 71.1271 110.916 71.0692C110.72 71.0114 110.52 70.9453 110.471 70.9225C110.422 70.8996 110.195 70.798 109.967 70.6965C109.546 70.5098 108.749 70.0458 108.686 69.9504C108.645 69.8897 107.385 71.5235 107.385 71.6367C107.385 71.7148 107.413 71.7374 107.979 72.1204C108.359 72.3775 108.971 72.6991 109.08 72.6991C109.122 72.6991 109.165 72.7196 109.176 72.7445C109.211 72.8262 110.193 73.1503 111.124 73.3878C111.52 73.4887 112.166 73.5639 113.023 73.6088L113.883 73.6538L114.714 73.6074C116.198 73.5245 116.778 73.3919 117.976 72.8617C118.354 72.6946 118.822 72.3729 119.167 72.0431C119.471 71.7527 119.847 71.3137 119.847 71.2489C119.847 71.2293 119.91 71.1174 119.987 71.0003C120.064 70.8833 120.146 70.7233 120.169 70.6448C120.192 70.5664 120.233 70.4508 120.261 70.388C120.289 70.3253 120.354 70.1018 120.406 69.8912L120.5 69.5086V68.825V68.1413L120.385 67.6783C120.322 67.4237 120.172 67.0239 120.051 66.7898L119.833 66.3642L119.439 65.9729C119.223 65.7576 118.878 65.4641 118.674 65.3205C118.206 64.993 116.91 64.3832 116.168 64.1423C115.858 64.0414 115.551 63.939 115.486 63.9146C115.42 63.8902 115.22 63.8301 115.041 63.7811C114.861 63.7321 114.571 63.6515 114.396 63.6019C114.221 63.5524 114.04 63.5119 113.994 63.5119C113.949 63.5119 113.865 63.4877 113.808 63.4582C113.752 63.4286 113.545 63.3623 113.349 63.3108C112.719 63.145 111.204 62.5874 111.124 62.4917C111.108 62.4722 111.001 62.4064 110.887 62.3454C110.657 62.223 110.253 61.8501 110.11 61.6288C110.06 61.5503 109.986 61.3449 109.948 61.1723L109.877 60.8584L109.957 60.457L110.037 60.0557L110.209 59.8008C110.673 59.1146 111.358 58.7446 112.578 58.5205L113.053 58.4332H113.918H114.784L115.342 58.5141C115.65 58.5586 116.035 58.6254 116.198 58.6626C116.646 58.7646 117.56 59.0706 117.582 59.1261C117.593 59.153 117.643 59.175 117.693 59.175C117.805 59.175 118.464 59.5079 118.625 59.6458C118.69 59.7008 118.763 59.7457 118.789 59.7457C118.815 59.7457 119.042 59.444 119.293 59.0752C119.544 58.7064 119.772 58.3961 119.799 58.3857C119.825 58.3752 119.847 58.3421 119.847 58.312C119.847 58.282 119.906 58.1807 119.978 58.0869L120.109 57.9164L119.96 57.7897C119.878 57.7199 119.759 57.6313 119.696 57.5928C119.57 57.5163 118.762 57.1387 118.571 57.0671C118.506 57.0425 118.352 56.9804 118.228 56.929C118.105 56.8775 117.964 56.8354 117.916 56.8354C117.868 56.8354 117.782 56.8108 117.725 56.7807C117.526 56.6748 116.25 56.431 115.604 56.3753C114.682 56.2957 113.252 56.273 112.697 56.3292ZM8.99635 56.742C8.99635 56.7881 8.97635 56.8345 8.95185 56.845C8.91268 56.8617 8.72225 57.2198 8.4107 57.8626C8.35747 57.9724 8.29392 58.0709 8.26941 58.0813C8.2449 58.0918 8.22491 58.1232 8.22491 58.1512C8.22491 58.2056 7.68276 59.2984 7.63208 59.3462C7.6154 59.3619 7.55749 59.4646 7.50331 59.5745C7.3451 59.8953 4.4809 65.472 4.42601 65.5662C4.39853 65.6132 4.22407 65.9471 4.03827 66.308C3.85247 66.6689 3.14297 68.0458 2.46149 69.3678C1.78006 70.6898 1.22255 71.7983 1.22255 71.8311C1.22255 71.8639 1.20255 71.8993 1.17804 71.9098C1.11306 71.9375 0.467183 73.2091 0.501305 73.242C0.517208 73.2573 1.11359 73.2698 1.82665 73.2698H3.12303L3.25578 72.9987C3.32877 72.8497 3.40236 72.7148 3.41921 72.6991C3.47286 72.6492 4.01162 71.5667 4.01162 71.5088C4.01162 71.4782 4.03162 71.4447 4.05613 71.4342C4.08064 71.4238 4.20288 71.2162 4.32786 70.9729L4.55514 70.5307H9.28808H14.021L14.1858 70.8588C14.2764 71.0393 14.3943 71.2768 14.4477 71.3867C14.5011 71.4965 14.5586 71.5992 14.5754 71.6149C14.6267 71.6626 14.9899 72.4076 14.9899 72.4649C14.9899 72.4943 15.0099 72.527 15.0344 72.5375C15.0589 72.5479 15.159 72.7105 15.2569 72.8988L15.435 73.2412L16.7553 73.2566L18.0757 73.2719V73.2016C18.0757 73.1629 17.0075 71.071 15.702 68.5528C14.3965 66.0346 13.3283 63.9473 13.3283 63.9143C13.3283 63.8812 13.3016 63.8543 13.269 63.8543C13.2363 63.8543 13.2096 63.8282 13.2096 63.7964C13.2096 63.7429 12.739 62.7935 12.616 62.5989C12.5862 62.5518 12.1852 61.7814 11.7248 60.887C11.2643 59.9925 10.8655 59.2221 10.8384 59.175C10.8113 59.128 10.5126 58.5502 10.1746 57.8911L9.5601 56.6928L9.27823 56.6754L8.99635 56.658V56.742ZM20.464 64.9527L20.479 73.2412L23.8625 73.256L27.2459 73.2707L28.0164 73.1869C28.4402 73.1408 28.9605 73.0654 29.1726 73.0192C29.9597 72.8478 30.1532 72.799 30.2111 72.7574C30.2438 72.734 30.3461 72.6975 30.4385 72.6762C30.5309 72.655 30.8066 72.5487 31.051 72.4401C31.2956 72.3315 31.5066 72.2426 31.5199 72.2426C31.5333 72.2426 31.7249 72.1364 31.9458 72.0065C33.2759 71.2244 34.4021 70.0532 34.9838 68.8473C35.2772 68.2391 35.3213 68.133 35.4343 67.7631C35.4919 67.5748 35.5606 67.3565 35.587 67.2781C35.6135 67.1996 35.6804 66.9043 35.7358 66.6218L35.8364 66.1083L35.836 64.9385L35.8356 63.7687L35.7387 63.3122C35.5879 62.6024 35.3742 61.8773 35.2425 61.6288C35.201 61.5503 35.1668 61.4652 35.1665 61.4397C35.1659 61.3645 34.8471 60.751 34.766 60.6689C34.725 60.6274 34.6914 60.5568 34.6914 60.512C34.6914 60.4671 34.6647 60.4304 34.6321 60.4304C34.5995 60.4304 34.5728 60.4037 34.5728 60.3711C34.5728 60.32 34.3641 60.0009 34.2757 59.9169C34.2592 59.9012 34.1661 59.7856 34.0688 59.6601C33.8433 59.3692 33.2556 58.8053 32.9108 58.5488C32.7641 58.4398 32.6308 58.3371 32.6145 58.3206C32.4912 58.1959 31.4531 57.6361 31.0274 57.4647C30.3691 57.1997 30.3601 57.1964 30.0331 57.1008C29.3002 56.8867 29.0658 56.8387 28.1935 56.7239L27.7781 56.6693L24.1136 56.6668L20.4489 56.6642L20.464 64.9527ZM39.5128 64.9494L39.5278 73.2412L42.9113 73.256L46.2947 73.2707L47.0652 73.1867C48.0794 73.0762 48.8784 72.9127 49.1849 72.7528C49.2416 72.7233 49.331 72.6991 49.3836 72.6991C49.4975 72.6991 49.73 72.6031 50.4467 72.2604C51.1217 71.9376 51.5456 71.6927 51.6633 71.5578C51.6796 71.5391 51.7864 71.4626 51.9006 71.3877C52.1669 71.2133 52.9976 70.3956 53.1916 70.117C53.2736 69.9993 53.3606 69.903 53.3851 69.903C53.4096 69.903 53.4454 69.8581 53.4645 69.8031C53.4991 69.7044 53.6226 69.5016 53.6819 69.4465C53.759 69.3749 54.2757 68.2956 54.3922 67.9628C54.5802 67.4264 54.7476 66.7643 54.7483 66.5542C54.7487 66.4542 54.7773 66.301 54.8119 66.2135L54.8747 66.0546L54.8769 65.0362C54.8789 64.0856 54.8528 63.8048 54.6876 62.9983C54.6523 62.8257 54.6082 62.6074 54.5897 62.5133C54.5713 62.4191 54.5358 62.3164 54.5111 62.285C54.4863 62.2536 54.4462 62.1389 54.422 62.0301C54.3977 61.9213 54.3585 61.7929 54.3348 61.7448C54.3112 61.6967 54.2513 61.5674 54.2019 61.4576C54.013 61.0382 53.7227 60.5089 53.5859 60.3344C53.5076 60.2345 53.4431 60.1318 53.4426 60.1062C53.442 60.0805 53.3686 59.9795 53.2794 59.8815C53.1901 59.7837 53.0103 59.5801 52.8798 59.4292C52.7492 59.2783 52.5253 59.0502 52.3821 58.9224C52.2389 58.7946 52.0872 58.6579 52.0451 58.6187C52.0029 58.5795 51.9399 58.5473 51.9048 58.5473C51.8699 58.5473 51.8413 58.5238 51.8413 58.495C51.8413 58.4661 51.7412 58.3837 51.6188 58.3119C51.4964 58.2401 51.3873 58.161 51.3765 58.1361C51.3655 58.1112 51.3188 58.0908 51.2726 58.0908C51.2264 58.0908 51.1885 58.0669 51.1885 58.0376C51.1885 58.0083 51.1284 57.9664 51.055 57.9444C50.9816 57.9223 50.9081 57.8885 50.8918 57.8691C50.8248 57.7899 49.8588 57.3676 49.3786 57.2075C49.2154 57.1532 49.0285 57.089 48.9632 57.0649C48.8979 57.0409 48.6309 56.9772 48.3698 56.9234C48.1087 56.8696 47.7882 56.7977 47.6577 56.7635L47.4203 56.7014L43.459 56.6795L39.4977 56.6576L39.5128 64.9494ZM57.9682 64.9527L57.9832 73.2412L59.0513 73.2575C59.6388 73.2664 60.1796 73.2595 60.253 73.2421L60.3865 73.2105V71.1573V69.1041H62.9844H65.5821L65.9452 69.4332C66.1448 69.6142 66.3872 69.8261 66.4839 69.904C66.8452 70.1953 67.5391 70.7953 67.7715 71.0172C67.9037 71.1436 68.0859 71.3018 68.1762 71.3687C68.2666 71.4356 68.5604 71.6841 68.829 71.9209C69.6251 72.6227 69.7771 72.7544 70.0954 73.0183L70.3985 73.2698H71.9399C72.7877 73.2698 73.4986 73.2531 73.5198 73.2328C73.541 73.2124 73.5039 73.1504 73.4375 73.095C73.2598 72.9468 72.3446 72.1401 72.0173 71.8432C71.8616 71.7019 71.5399 71.4195 71.3024 71.2155C71.065 71.0115 70.7539 70.7354 70.6111 70.602C70.4683 70.4686 70.3391 70.3595 70.3241 70.3595C70.309 70.3595 70.1949 70.2632 70.0704 70.1455C69.946 70.0279 69.6202 69.7389 69.3462 69.5036C69.0724 69.2682 68.7269 68.9623 68.5785 68.8238L68.3087 68.5721L68.3788 68.5493C68.4174 68.5368 68.6736 68.4163 68.9481 68.2817C70.7081 67.4181 71.8935 65.8695 72.2062 64.0255C72.2355 63.8528 72.2748 63.4317 72.2937 63.0896L72.3281 62.4676L72.2575 62.0339C72.1667 61.4758 72.0257 60.9067 71.9216 60.6786C71.8765 60.5797 71.8395 60.4711 71.8395 60.4373C71.8395 60.3589 71.5661 59.8725 71.2743 59.4318C70.9884 59.0002 70.1421 58.1813 69.6673 57.877C69.3099 57.6478 68.3645 57.1778 68.2612 57.1778C68.2319 57.1778 68.1238 57.1419 68.021 57.098C67.7096 56.9651 67.0971 56.8251 66.3801 56.723L65.9944 56.6679L61.9738 56.6661L57.9531 56.6642L57.9682 64.9527ZM76.7056 64.9672V73.2703L83.1294 73.2557L89.5531 73.2412V72.2141V71.1869L84.3156 71.1724L79.078 71.1578L79.0935 68.6045L79.1089 66.0512L83.6338 66.0366L88.1586 66.022V65.0237V64.0255H83.6189H79.0793V61.372V58.7185H84.331H89.5828V57.6914V56.6642H83.1442H76.7056V64.9672ZM27.8226 58.8057C28.475 58.9094 29.1208 59.0601 29.1993 59.127C29.2304 59.1534 29.3063 59.175 29.3682 59.175C29.4301 59.175 29.5516 59.2106 29.6382 59.254C29.7249 59.2974 29.9025 59.3809 30.0331 59.4395C30.1636 59.498 30.2838 59.5588 30.3001 59.5745C30.3165 59.5902 30.4233 59.6516 30.5375 59.711C31.0652 59.9856 31.7916 60.5976 32.1701 61.0867C32.2673 61.2122 32.3603 61.3278 32.3767 61.3435C32.4979 61.4587 33.0201 62.4774 33.0933 62.7415C33.1194 62.8357 33.2002 63.1181 33.2728 63.3692L33.4047 63.8257L33.4035 64.967L33.4022 66.1083L33.2806 66.5362C33.0448 67.3671 32.6113 68.3623 32.4853 68.3623C32.4584 68.3623 32.4364 68.3897 32.4364 68.4232C32.4364 68.6519 30.9594 70.0742 30.7218 70.0742C30.6857 70.0742 30.6562 70.0938 30.6562 70.1177C30.6562 70.1638 30.6402 70.1726 30.0519 70.4519C29.6038 70.6647 28.8306 70.9271 28.4605 70.9921C28.3137 71.0179 28.06 71.0644 27.8968 71.0953L27.6001 71.1516L25.2116 71.155L22.823 71.1584V64.9765C22.823 61.5765 22.8408 58.7775 22.8626 58.7566C22.8843 58.7357 23.8857 58.7185 25.0879 58.7185H27.2736L27.8226 58.8057ZM46.9752 58.8315C47.9927 59.0102 48.3392 59.1149 49.0742 59.4656C49.8889 59.8544 50.0603 59.9723 50.6847 60.5726C51.2216 61.089 51.402 61.3162 51.6976 61.8489C52.1353 62.6373 52.2959 63.1586 52.4389 64.2537L52.5022 64.7387L52.467 65.3094C52.3925 66.5182 52.0917 67.489 51.5213 68.3623C51.1026 69.0034 50.5169 69.5852 49.883 69.9899C49.6382 70.1461 49.429 70.2932 49.4182 70.3167C49.4073 70.3402 49.3645 70.3595 49.3232 70.3595C49.2817 70.3595 49.1304 70.4186 48.9869 70.4909C48.4577 70.7571 47.8234 70.941 46.8862 71.0998C46.723 71.1275 45.5147 71.152 44.201 71.1542L41.8125 71.1584V64.9765C41.8125 61.5765 41.8303 58.7775 41.8521 58.7566C41.8738 58.7357 42.8952 58.7193 44.1219 58.7203L46.3521 58.7221L46.9752 58.8315ZM66.2021 58.8323C66.9965 58.9854 67.3296 59.0727 67.3296 59.1276C67.3296 59.1537 67.3769 59.175 67.4346 59.175C67.5679 59.175 68.4571 59.6725 68.4571 59.7471C68.4571 59.7777 68.4835 59.8027 68.5159 59.8027C68.5696 59.8027 68.866 60.0862 69.1648 60.4232C69.4583 60.7545 69.7623 61.474 69.8909 62.1423L69.9513 62.4562L69.9186 63.1124C69.9007 63.4734 69.8479 63.8971 69.8012 64.054C69.6981 64.4012 69.4107 65.0169 69.3396 65.0431C69.3111 65.0536 69.2878 65.0969 69.2878 65.1394C69.2878 65.263 68.4582 66.0468 68.101 66.2607C67.9215 66.3681 67.6544 66.5029 67.5076 66.56C67.3607 66.6173 67.1871 66.6855 67.1219 66.7118C66.9183 66.7936 66.2534 66.9266 65.7327 66.9895L65.2337 67.0498H62.8101H60.3865V62.8842V58.7185L63.0124 58.721L65.6383 58.7236L66.2021 58.8323ZM9.53981 61.3877C9.82845 62.0113 10.1013 62.5849 10.4962 63.3978C10.6105 63.6331 10.7628 63.9541 10.8347 64.111C10.9065 64.268 11.0429 64.5525 11.1379 64.7433C11.233 64.934 11.3107 65.1202 11.3107 65.157C11.3107 65.1937 11.3374 65.2238 11.37 65.2238C11.4027 65.2238 11.4294 65.2614 11.4294 65.3074C11.4294 65.4106 11.6206 65.8159 11.6816 65.842C11.7061 65.8525 11.7261 65.8859 11.7261 65.9164C11.7261 65.9713 11.7855 66.1037 12.1833 66.9357C12.2959 67.1711 12.4289 67.4535 12.4788 67.5634C12.5288 67.6732 12.6469 67.9111 12.7413 68.0921C12.8357 68.273 12.9129 68.4463 12.9129 68.4773V68.5335H9.26339H5.61386V68.4479C5.61386 68.4008 5.6354 68.3623 5.66181 68.3623C5.68815 68.3623 5.75895 68.2532 5.81912 68.1198C5.93419 67.8647 6.1474 67.4124 6.44464 66.7929C6.54256 66.5888 6.62267 66.3962 6.62267 66.3649C6.62267 66.3336 6.64937 66.308 6.68201 66.308C6.71465 66.308 6.74135 66.271 6.74135 66.2258C6.74135 66.1806 6.84514 65.9302 6.97196 65.6694C7.09877 65.4086 7.26256 65.0669 7.3359 64.9099C7.73854 64.0486 8.21642 63.0463 8.67021 62.1115C8.747 61.9532 8.828 61.7543 8.85019 61.6692C8.87239 61.5842 8.90846 61.5147 8.93042 61.5147C8.95238 61.5147 9.00056 61.4376 9.03753 61.3435L9.10471 61.1723L9.27306 61.1738L9.44142 61.1752L9.53981 61.3877ZM14.9899 80.1598C14.3828 80.2315 14.0087 80.3881 13.6599 80.7169C13.3631 80.9966 13.2367 81.2361 13.141 81.7001L13.0675 82.056L13.1441 82.4941C13.1862 82.7351 13.2582 82.9684 13.3042 83.0126C13.3501 83.0567 13.3877 83.1201 13.3877 83.1533C13.3877 83.2394 13.8585 83.6756 14.0701 83.7855C14.2967 83.9032 14.8682 84.0546 15.088 84.0552C15.1809 84.0555 15.4392 84.0108 15.6621 83.9559L16.0672 83.856L16.2421 83.7129L16.4171 83.5697L16.2731 83.3988L16.1291 83.228L16.0147 83.3275C15.9518 83.3823 15.8713 83.4271 15.8358 83.4271C15.8003 83.4271 15.7616 83.4548 15.7499 83.4887L15.7285 83.5502L15.2517 83.5817L14.7748 83.6131L14.5031 83.4975C14.1242 83.3363 13.8861 83.1153 13.7134 82.7645L13.5657 82.4641V82.1058V81.7475L13.6628 81.5031C13.7162 81.3687 13.7829 81.2587 13.8111 81.2587C13.8393 81.2587 13.8624 81.2318 13.8624 81.1989C13.8624 81.1198 14.1437 80.8716 14.3668 80.7538C14.4647 80.7021 14.6783 80.6332 14.8415 80.6008L15.1382 80.5419L15.4277 80.6137C15.5869 80.6531 15.8088 80.7373 15.9207 80.8008C16.1821 80.9492 16.191 80.948 16.3143 80.7472L16.4182 80.5781L16.1936 80.4394C16.0701 80.3631 15.8222 80.2708 15.6427 80.2344C15.1975 80.1441 15.1597 80.1398 14.9899 80.1598ZM75.5484 80.1638C75.1901 80.201 74.7545 80.3543 74.6087 80.4945C74.5264 80.5736 74.4169 80.7576 74.3652 80.9034L74.2713 81.1684L74.3609 81.4276L74.4506 81.6866L74.7337 81.8721C74.8894 81.9741 75.0577 82.0576 75.1076 82.0576C75.1575 82.0576 75.2237 82.0789 75.2547 82.105C75.2857 82.1311 75.4846 82.1998 75.6968 82.2576C76.4612 82.4662 76.7056 82.6535 76.7056 83.0309V83.237L76.5127 83.4034L76.3199 83.5697H75.7264H75.133L74.8957 83.4614C74.7651 83.4019 74.642 83.3291 74.622 83.2997L74.5858 83.2462L74.4622 83.3974C74.3942 83.4805 74.3511 83.5799 74.3664 83.6182C74.4083 83.7233 74.7324 83.8666 75.1527 83.966C75.6271 84.0781 75.845 84.0776 76.3189 83.9631L76.6984 83.8715L76.8664 83.7206C77.0749 83.5334 77.163 83.3543 77.1997 83.0427L77.2282 82.8011L77.1004 82.5585L76.9726 82.316L76.7353 82.1625C76.6047 82.078 76.4445 81.9968 76.3792 81.982C76.3139 81.9671 76.1804 81.9289 76.0825 81.897C75.9846 81.865 75.7977 81.8081 75.6671 81.7705C75.3147 81.6689 75.0275 81.5366 74.9105 81.4221L74.8066 81.3205V81.1377V80.955L74.9926 80.7953L75.1786 80.6356L75.443 80.5975C75.7921 80.5472 76.2755 80.6053 76.5955 80.7362L76.854 80.842L76.9865 80.6696L77.119 80.4973L76.9559 80.4019C76.7325 80.2712 75.8885 80.1285 75.5484 80.1638ZM82.6695 80.1463C82.6368 80.1547 82.4499 80.195 82.2541 80.2358C81.4763 80.3979 81.0257 80.8451 80.8219 81.6571L80.7191 82.0668L80.7947 82.4188C80.896 82.8913 81.0486 83.1975 81.3179 83.4693C81.5842 83.7379 81.7868 83.8498 82.2204 83.9674C82.63 84.0785 82.8939 84.0777 83.2909 83.9644C83.8322 83.8098 84.0747 83.6218 84.3521 83.1418C84.4376 82.9937 84.5979 82.2964 84.598 82.0718L84.5981 81.9434H83.6449H82.6916L82.7102 82.124L82.7288 82.3045L83.3914 82.3094C83.7558 82.3121 84.0743 82.3339 84.0993 82.3578C84.1242 82.3817 84.0965 82.5486 84.0377 82.7287L83.9309 83.0562L83.6931 83.2682C83.5624 83.3847 83.3617 83.5099 83.2472 83.5462L83.0389 83.6123L82.6047 83.5855L82.1704 83.5587L81.9452 83.3995C81.6583 83.1968 81.3973 82.9106 81.3952 82.7965C81.3943 82.7478 81.3634 82.679 81.3264 82.6435L81.2593 82.5789L81.2579 82.1328L81.2565 81.6866L81.388 81.4216C81.5308 81.1339 81.7973 80.8721 82.113 80.7093L82.3134 80.606L82.8178 80.6092L83.3222 80.6125L83.6129 80.7644C83.7728 80.8479 83.9206 80.9163 83.9413 80.9163C83.9621 80.9163 84.0246 80.8422 84.0803 80.7516L84.1814 80.5869L84.1079 80.5305C83.8612 80.3412 82.9044 80.0857 82.6695 80.1463ZM94.3598 80.1594C94.2946 80.1689 94.0927 80.2043 93.9112 80.2381L93.5813 80.2996L93.4028 80.451C93.1887 80.6325 93.0247 80.9335 93.0247 81.1445C93.0247 81.3127 93.1729 81.6333 93.3182 81.7793C93.4348 81.8964 93.7614 82.0576 93.8821 82.0576C93.9328 82.0576 93.9741 82.0832 93.9741 82.1146C93.9741 82.146 94.0208 82.1717 94.0778 82.1717C94.1348 82.1717 94.3949 82.2401 94.6557 82.3236L95.1299 82.4754L95.2938 82.633L95.4577 82.7906V82.9431C95.4577 83.1664 95.284 83.4121 95.0512 83.5183L94.8471 83.6115L94.3365 83.584L93.8258 83.5566L93.6181 83.4535C93.5038 83.3968 93.3898 83.3227 93.3647 83.2889L93.3191 83.2274L93.2332 83.3415C93.186 83.4043 93.1193 83.4871 93.085 83.5256L93.0226 83.5956L93.2462 83.73C93.4952 83.8798 94.1552 84.0548 94.4711 84.0548C94.5842 84.0548 94.8418 84.0141 95.0436 83.9644L95.4106 83.8739L95.5835 83.7259C95.8257 83.5183 95.9324 83.2841 95.9324 82.9598V82.6813L95.8316 82.5263C95.6283 82.214 95.4125 82.0746 94.8939 81.9204C93.7753 81.5878 93.5587 81.4604 93.5587 81.1347V80.955L93.7447 80.7953L93.9307 80.6356L94.1901 80.5983C94.5329 80.5488 95.0506 80.6146 95.3571 80.7465L95.6041 80.8529L95.7197 80.6774L95.8352 80.5019L95.7225 80.4226C95.5288 80.2864 94.652 80.1171 94.3598 80.1594ZM115.486 80.1587C114.514 80.2987 114.155 80.5307 113.785 81.2587L113.654 81.5154L113.655 82.1146L113.657 82.7138L113.821 83.019C114.112 83.5613 114.559 83.8668 115.263 84.0049L115.634 84.0776L116.094 83.9692C116.347 83.9096 116.567 83.8465 116.583 83.8289C116.6 83.8113 116.713 83.733 116.836 83.6548C117.105 83.4823 117.402 83.0994 117.452 82.8594C117.472 82.7623 117.512 82.669 117.541 82.6522C117.569 82.6353 117.592 82.3948 117.592 82.1178V81.6141L117.504 81.4506C117.455 81.3607 117.415 81.2423 117.415 81.1873C117.414 81.1324 117.388 81.0875 117.355 81.0875C117.322 81.0875 117.296 81.0543 117.296 81.0137C117.296 80.9296 116.863 80.527 116.647 80.4099C116.377 80.2637 115.729 80.1237 115.486 80.1587ZM34.8695 80.239C34.7552 80.2688 34.5683 80.3371 34.4541 80.3908C34.2241 80.4988 33.742 80.924 33.742 81.0188C33.742 81.0521 33.7076 81.1133 33.6655 81.1547C33.4784 81.3393 33.3869 82.2119 33.508 82.6567C33.5816 82.927 33.75 83.2559 33.8148 83.2559C33.84 83.2559 33.8607 83.2816 33.8607 83.313C33.8607 83.387 34.0804 83.5983 34.1574 83.5983C34.19 83.5983 34.2167 83.6181 34.2167 83.6424C34.2167 83.711 34.5669 83.8664 34.9585 83.9714L35.3145 84.0668L35.5816 84.0351C35.9848 83.9872 36.4226 83.8437 36.6064 83.6991L36.7708 83.5697L36.6213 83.404L36.4718 83.2382L36.3679 83.3208C36.3108 83.3662 36.1864 83.4409 36.0915 83.4866L35.919 83.5697L35.4091 83.5697L34.8991 83.5696L34.7211 83.4556C34.3848 83.24 34.2241 83.0719 34.0639 82.7674L33.9034 82.4624L33.9059 82.0737L33.9085 81.685L34.0577 81.415C34.2371 81.0906 34.4639 80.8703 34.7767 80.7166L35.0088 80.6024L35.4584 80.6039L35.908 80.6053L36.2042 80.7645L36.5005 80.9237L36.6316 80.7656L36.7627 80.6074L36.6989 80.5336C36.6639 80.493 36.6072 80.4598 36.5729 80.4598C36.5387 80.4598 36.4686 80.4256 36.417 80.3839C36.1964 80.2054 35.3144 80.1228 34.8695 80.239ZM59.1404 80.3087C58.9935 80.3809 58.8389 80.5021 58.7968 80.5782L58.7202 80.7166L58.74 81.1121L58.7597 81.5076L58.8314 81.5305C58.8708 81.5432 58.903 81.5871 58.903 81.6282C58.903 81.6693 58.943 81.7177 58.992 81.7358C59.041 81.7539 59.081 81.8153 59.081 81.8723V81.9759L58.8881 82.0821C58.606 82.2375 58.382 82.4875 58.3058 82.7318L58.239 82.9466L58.3088 83.1961L58.3787 83.4456L58.5963 83.6541L58.814 83.8626L59.2764 83.9707L59.7388 84.0788L60.1665 83.9734C60.4017 83.9154 60.6579 83.8201 60.7358 83.7616C60.9228 83.6212 61.0019 83.6274 61.1933 83.798L61.3533 83.9407H61.6234H61.8935L61.5851 83.6502C61.4155 83.4905 61.2767 83.3377 61.2767 83.3106C61.2767 83.2375 61.4156 82.947 61.4681 82.9103C61.4931 82.8928 61.5309 82.6809 61.5522 82.4395L61.5908 82.0005H61.3801H61.1694L61.1402 82.2715C61.099 82.6534 61.018 82.9298 60.94 82.9549C60.9033 82.9666 60.677 82.7953 60.4371 82.5742C60.1971 82.353 59.9808 82.172 59.9563 82.1719C59.8197 82.1712 59.948 81.991 60.1768 81.862C60.3226 81.7798 60.5095 81.6273 60.5922 81.523L60.7426 81.3335V81.0127V80.692L60.5674 80.5001L60.3922 80.3083L60.16 80.2414C60.0322 80.2046 59.8106 80.1752 59.6675 80.1761L59.4074 80.1776L59.1404 80.3087ZM8.59508 80.2743C8.57099 80.2821 8.55704 81.1039 8.5641 82.1003L8.57692 83.9121L8.81429 83.9296L9.0516 83.947L9.06851 83.3304L9.08536 82.7138L9.66602 82.6974L10.2467 82.6811L10.3206 82.7545C10.3613 82.7949 10.5267 82.9948 10.6882 83.1988C10.8497 83.4028 11.0601 83.6532 11.1557 83.7552L11.3297 83.9407H11.5894H11.8489L11.7908 83.8408C11.7588 83.7858 11.6644 83.6663 11.581 83.5751C11.4976 83.4839 11.4293 83.394 11.4293 83.3754C11.4292 83.3568 11.2966 83.2002 11.1346 83.0276C10.9726 82.855 10.8391 82.6992 10.838 82.6815C10.8368 82.6637 10.946 82.5897 11.0806 82.517C11.3853 82.3523 11.5469 82.1764 11.6467 81.9008C11.8655 81.2966 11.6063 80.6505 11.0437 80.3983L10.8063 80.2918L9.72258 80.2759C9.12655 80.2672 8.61917 80.2664 8.59508 80.2743ZM17.8977 82.08V83.9407H18.135H18.3724V83.1418V82.3429H19.5279H20.6834L20.6999 83.1275L20.7164 83.9121L20.9389 83.9298L21.1615 83.9476V82.118V80.2886H20.9834C20.8855 80.2886 20.7854 80.2821 20.7609 80.2743C20.7364 80.2665 20.703 80.6324 20.6867 81.0875L20.6571 81.9149H19.5296H18.4021L18.3856 81.1017L18.3691 80.2886H18.2272C18.1492 80.2886 18.0432 80.273 17.9915 80.2539L17.8977 80.2193V82.08ZM23.1939 80.2728L23.0011 80.2958V82.1182V83.9407H23.2088H23.4165V82.0861C23.4165 81.0661 23.4098 80.2356 23.4016 80.2406C23.3934 80.2457 23.3 80.2602 23.1939 80.2728ZM24.8406 80.4455L24.8407 80.631H25.4934H26.1462V82.2858V83.9407H26.3836H26.6209V82.2858V80.631H27.3034H27.9858V80.4616V80.2922L26.4132 80.2761L24.8406 80.26V80.4455ZM29.4244 80.2743C29.4002 80.2821 29.3858 81.1039 29.3926 82.1003L29.4048 83.9121L30.8317 83.9274L32.2584 83.9427V83.7431V83.5435L31.0567 83.5281L29.8551 83.5127L29.8382 82.9344L29.8214 82.3562L29.9778 82.3185C30.064 82.2977 30.5255 82.2846 31.0035 82.2894L31.8727 82.2981L31.8912 82.1222L31.9097 81.9462L30.8824 81.9305L29.8551 81.9149V81.2872V80.6595L31.0567 80.644L32.2584 80.6286V80.4606V80.2926L30.8634 80.2763C30.0961 80.2673 29.4486 80.2664 29.4244 80.2743ZM42.2872 81.5779V82.9068L42.342 82.9393C42.3721 82.9572 42.4146 83.0497 42.4362 83.1447L42.4757 83.3176L42.7602 83.5912L43.0448 83.8648L43.3969 83.9598C43.5905 84.012 43.8416 84.0548 43.955 84.0548C44.3664 84.0548 45.1029 83.7136 45.2397 83.4596C45.2746 83.3946 45.352 83.2516 45.4116 83.1418L45.5199 82.942L45.5384 81.601L45.5569 80.26L45.3314 80.266L45.106 80.2719L45.0763 81.5784L45.0466 82.885L44.9654 83.0276C44.8387 83.2504 44.495 83.5246 44.2943 83.5632C43.6532 83.6865 43.1679 83.5077 42.8894 83.0454L42.7927 82.885L42.7625 81.5799L42.7323 80.2749L42.5098 80.262L42.2872 80.2491V81.5779ZM47.3559 80.2838C47.3423 80.2969 47.3313 81.125 47.3313 82.1241V83.9407H47.5666H47.802L47.8188 83.3272L47.8357 82.7138L48.4164 82.6974L48.997 82.6811L49.0691 82.7546C49.13 82.8167 49.4172 83.1564 49.6859 83.4841C49.7245 83.5312 49.827 83.6532 49.9139 83.7552L50.0716 83.9407H50.3333C50.4773 83.9407 50.5951 83.9168 50.5951 83.8876C50.5951 83.8585 50.5083 83.7432 50.4022 83.6313C50.2962 83.5194 50.1159 83.3103 50.0017 83.1665C49.8875 83.0227 49.7475 82.8519 49.6906 82.7869L49.5871 82.6687L49.6906 82.5932C49.7475 82.5517 49.8232 82.5169 49.8589 82.5159C49.9475 82.5134 50.2033 82.2887 50.3157 82.1146C50.3664 82.0362 50.4258 81.853 50.4478 81.7077L50.4878 81.4435L50.4186 81.1228C50.3805 80.9465 50.3245 80.8022 50.2942 80.8022C50.2639 80.8022 50.2391 80.7729 50.2391 80.7371C50.2391 80.653 50.0905 80.5414 49.794 80.4028L49.5566 80.2918L48.4685 80.2759C47.8701 80.2672 47.3694 80.2708 47.3559 80.2838ZM52.138 82.1014V83.9427L53.5459 83.9274L54.9538 83.9121L54.9694 83.7267L54.985 83.5412H53.7989H52.6127V82.9481V82.3551L52.6912 82.3262C52.7344 82.3102 53.195 82.2956 53.7148 82.2937L54.66 82.2903V82.1128V81.9355L53.6512 81.9252L52.6424 81.9149L52.6256 81.2729L52.6088 80.631H53.7969H54.985L54.9704 80.4585L54.9558 80.286L53.5469 80.273L52.1379 80.26L52.138 82.1014ZM70.2027 80.2838C70.1891 80.2969 70.178 81.125 70.178 82.1241V83.9407H71.6022H73.0264V83.7409V83.5412H71.8459H70.6654L70.6294 83.4509C70.6096 83.4013 70.5934 83.1439 70.5934 82.8789V82.3971L70.7563 82.3376L70.9191 82.278L71.7948 82.2962L72.6705 82.3143L72.6704 82.1289L72.6703 81.9434H71.7031H70.7358L70.6646 81.875L70.5934 81.8065V81.309C70.5934 81.0354 70.6096 80.7709 70.6294 80.7212L70.6654 80.631H71.8459H73.0264V80.4455V80.26H71.6269C70.8572 80.26 70.2163 80.2708 70.2027 80.2838ZM78.7826 82.0975V83.9407H78.9903H79.198V82.1208V80.3011L78.9903 80.2777L78.7826 80.2545V82.0975ZM89.0688 80.3205C89.0541 80.3576 89.0502 80.9305 89.0602 81.5937L89.0784 82.7995L88.9824 82.7994C88.8835 82.7994 88.3366 82.3097 88.3366 82.2212C88.3366 82.194 88.3149 82.1717 88.2883 82.1717C88.2252 82.1717 87.2091 81.1946 87.2091 81.1339C87.2091 81.1084 87.1859 81.0875 87.1576 81.0875C87.0904 81.0875 86.5564 80.5739 86.5564 80.5093C86.5564 80.4821 86.5192 80.4598 86.4737 80.4598C86.4283 80.4598 86.3757 80.4213 86.3569 80.3742C86.3381 80.3271 86.2685 80.2886 86.2022 80.2886H86.0816V82.1146V83.9407H86.319H86.5564V82.6282V81.3157H86.6401C86.703 81.3157 87.6839 82.2001 87.6839 82.2568C87.6839 82.2983 89.4237 83.9407 89.4676 83.9407H89.5235V82.1208V80.3011L89.3096 80.2771L89.0957 80.253L89.0688 80.3205ZM101.584 81.598L101.602 82.942L101.69 83.1418C101.738 83.2516 101.798 83.3672 101.823 83.3985C102.073 83.7115 102.239 83.8223 102.663 83.9599C103.035 84.0806 103.267 84.0795 103.714 83.9549L104.072 83.8551L104.29 83.6497C104.588 83.368 104.613 83.329 104.731 82.9656L104.834 82.6467V81.4676V80.2886H104.656C104.558 80.2886 104.458 80.2885 104.433 80.2883C104.409 80.2881 104.375 80.8723 104.359 81.5865L104.329 82.885L104.212 83.0562C104.147 83.1503 104.014 83.2971 103.915 83.3825L103.736 83.5376L103.48 83.5749C103.34 83.5954 103.086 83.5946 102.917 83.5731L102.608 83.5341L102.365 83.2867L102.121 83.0393L102.053 82.78L101.985 82.5206V81.4109V80.3011L101.776 80.2775L101.566 80.254L101.584 81.598ZM106.638 80.2838C106.625 80.2969 106.614 81.1288 106.614 82.1324V83.9572L107.638 83.9262L108.661 83.8952L108.839 83.8042C108.937 83.7541 109.051 83.713 109.091 83.7127C109.132 83.7126 109.166 83.6867 109.166 83.6553C109.166 83.6239 109.191 83.5983 109.223 83.5983C109.324 83.5983 109.666 83.2299 109.783 82.9964C109.845 82.8724 109.918 82.7263 109.946 82.6718C109.974 82.6173 109.996 82.3742 109.996 82.1316V81.6905L109.898 81.4317C109.792 81.1558 109.553 80.8055 109.414 80.7244C109.368 80.6973 109.286 80.6331 109.231 80.5817C109.177 80.5304 109.039 80.451 108.926 80.4056L108.721 80.3228L107.692 80.2914C107.126 80.2741 106.652 80.2708 106.638 80.2838ZM5.15301 80.5026C5.09639 80.6203 5.03219 80.7297 5.01029 80.7457C4.98839 80.7617 4.95213 80.8451 4.9297 80.9311C4.90727 81.0171 4.86508 81.0875 4.836 81.0875C4.80686 81.0875 4.78307 81.1196 4.78307 81.1588C4.78313 81.2489 4.41266 81.9654 4.35284 81.991C4.32833 82.0015 4.30833 82.0343 4.30833 82.064C4.30833 82.1485 3.46182 83.7957 3.4074 83.817C3.3807 83.8275 3.35886 83.861 3.35886 83.8915V83.9469L3.63468 83.9295L3.91044 83.9121L3.95447 83.8265C3.97875 83.7794 4.04764 83.6447 4.10758 83.5269L4.21665 83.313H5.31738H6.41812L6.56689 83.6125L6.7156 83.9121L6.99492 83.9295L7.27419 83.9469L7.23461 83.8439C7.21289 83.7873 7.17965 83.7281 7.16078 83.7124C7.10322 83.6645 6.74135 82.9395 6.74135 82.8721C6.74135 82.8373 6.72136 82.8004 6.69685 82.7898C6.63703 82.7643 6.26656 82.0478 6.26662 81.9577C6.26662 81.9185 6.24282 81.8864 6.21369 81.8864C6.18461 81.8864 6.14242 81.816 6.11998 81.73C6.09755 81.644 6.06082 81.5606 6.03839 81.5445C5.98267 81.5048 5.61386 80.7617 5.61386 80.6892C5.61386 80.6572 5.58929 80.631 5.5592 80.631C5.52918 80.631 5.48698 80.5539 5.4655 80.4598L5.42639 80.2886H5.34112C5.29424 80.2886 5.20956 80.3849 5.15301 80.5026ZM37.7772 80.4598V80.631H38.4597H39.1421V82.2858V83.9407H39.3489H39.5556L39.5714 82.3001L39.5872 80.6595L40.2844 80.6434L40.9817 80.6274V80.4579V80.2886H39.3795H37.7772V80.4598ZM65.1932 82.1224V83.9562L66.2169 83.9258L67.2405 83.8953L67.5437 83.7505C67.8612 83.599 68.187 83.3283 68.3486 83.082C68.4596 82.9129 68.6354 82.2887 68.6344 82.0672C68.6341 81.9834 68.5936 81.7865 68.5444 81.6296C68.3406 80.9787 68.1316 80.7229 67.5837 80.4534L67.2485 80.2886H66.2209H65.1932V82.1224ZM97.0599 80.4598V80.631H97.7127H98.3654V82.2858V83.9407H98.6028H98.8402V82.2858V80.631H99.5159H100.192L100.218 80.4598L100.244 80.2886H98.6519H97.0599V80.4598ZM111.599 82.1146V83.9407H111.836H112.073V82.1146V80.2886H111.836H111.599V82.1146ZM60.1708 80.6673L60.3272 80.8177V81.0298V81.242L60.1844 81.3787C59.9454 81.6076 59.8623 81.6591 59.6726 81.6955L59.4905 81.7306L59.3748 81.6111C59.3111 81.5455 59.259 81.4671 59.259 81.437C59.259 81.4069 59.2307 81.3732 59.1961 81.3621C59.1049 81.3329 59.1128 80.9002 59.2071 80.7548C59.2514 80.6867 59.3212 80.631 59.3624 80.631C59.4034 80.631 59.4371 80.6053 59.4371 80.5739V80.5168H59.7257H60.0143L60.1708 80.6673ZM116.329 80.7375C116.627 80.8851 116.839 81.1117 116.999 81.4554L117.131 81.7377L117.105 82.2225L117.078 82.7073L117.009 82.7296C116.971 82.7418 116.939 82.7863 116.939 82.8283C116.939 82.9447 116.652 83.2485 116.381 83.4181L116.138 83.5697H115.604H115.07L114.892 83.4575C114.603 83.2749 114.322 82.9657 114.195 82.6881L114.075 82.4285L114.077 82.0861L114.079 81.7437L114.197 81.4841C114.392 81.0511 114.787 80.7232 115.248 80.6095C115.314 80.5934 115.533 80.5906 115.735 80.6032L116.104 80.6262L116.329 80.7375ZM10.7004 80.7308C10.9524 80.8429 11.0052 80.8846 11.1499 81.0859L11.2513 81.227V81.4762V81.7254L11.0882 81.9474C10.9984 82.0694 10.8938 82.1698 10.8557 82.1705C10.8177 82.1711 10.7758 82.2025 10.7627 82.2403L10.7389 82.3089L9.91218 82.3116L9.08536 82.3143L9.06893 81.4726L9.05255 80.631H9.76418H10.4759L10.7004 80.7308ZM49.4394 80.7208C50.1631 81.0116 50.208 81.8295 49.522 82.226L49.3786 82.3089L48.5923 82.3325L47.806 82.3561V81.4935V80.631H48.5109H49.2158L49.4394 80.7208ZM67.0032 80.6925C67.1337 80.726 67.3665 80.8346 67.5206 80.9338L67.8006 81.1142L67.9063 81.3148C67.9644 81.4252 68.036 81.5322 68.0652 81.5525C68.0945 81.573 68.1199 81.8122 68.1217 82.0841L68.125 82.5787L68.0617 82.6177C68.0268 82.6391 67.9797 82.7141 67.957 82.7842C67.9342 82.8543 67.8134 83.0109 67.6885 83.1322L67.4615 83.3527L67.1618 83.4469L66.8622 83.5412H66.2714H65.6807L65.6447 83.4509C65.6248 83.4013 65.6086 82.7871 65.6086 82.0861C65.6086 81.3851 65.6248 80.7709 65.6447 80.7212L65.6807 80.631L66.2232 80.6313C66.5217 80.6315 66.8726 80.659 67.0032 80.6925ZM108.525 80.7196C108.864 80.8307 109.25 81.1439 109.387 81.4192L109.492 81.6296V82.1669V82.7043L109.418 82.7281C109.377 82.7411 109.344 82.7852 109.344 82.826C109.344 82.9421 108.888 83.3094 108.592 83.4311L108.325 83.5412H107.707H107.089V82.0861V80.631H107.672H108.254L108.525 80.7196ZM5.58193 81.6213C5.69741 81.8521 5.79188 82.0704 5.79188 82.1063C5.79188 82.1423 5.81859 82.1717 5.85122 82.1717C5.88386 82.1717 5.91057 82.2069 5.91057 82.25C5.91057 82.2931 5.96534 82.4475 6.03234 82.593C6.09927 82.7387 6.13779 82.8831 6.11785 82.9142L6.08159 82.9706H5.37785C4.67299 82.9706 4.48636 82.9454 4.48636 82.8505C4.48636 82.8225 4.56398 82.6391 4.65892 82.4429C4.75381 82.2467 4.92709 81.887 5.04399 81.6438C5.16096 81.4006 5.28255 81.2016 5.3143 81.2016C5.34605 81.2016 5.46651 81.3905 5.58193 81.6213ZM60.0739 82.7678L60.6437 83.3069L60.5707 83.3914C60.4771 83.4999 60.0034 83.6554 59.7677 83.655C59.1539 83.654 58.6957 83.2607 58.8079 82.8311C58.864 82.6159 59.2727 82.2371 59.4557 82.2305C59.4823 82.2295 59.7605 82.4713 60.0739 82.7678Z" fill="white"/>
</g>
</g>
</g>
<defs>
<clipPath id="clip0_0_1">
<rect width="375" height="3391" fill="white" transform="translate(-127 -3100)"/>
</clipPath>
</defs>
</svg>
