<svg width="80" height="56" viewBox="0 0 80 56" fill="none" xmlns="http://www.w3.org/2000/svg">
<path fill-rule="evenodd" clip-rule="evenodd" d="M24.8186 14.7082L9.693 29.4111L10.7866 29.4213L11.8801 29.4315L18.9624 22.5524C22.8577 18.7688 26.0565 15.6732 26.071 15.6732C26.0855 15.6732 26.8225 16.3774 27.7088 17.2381L29.3202 18.8031L29.4853 18.6504C29.9017 18.2651 30.39 17.7688 30.3892 17.7316C30.3887 17.7091 29.6766 17 28.8067 16.1558C27.9369 15.3117 27.2252 14.5996 27.2252 14.5733C27.2252 14.5053 39.9191 2.18512 39.9892 2.18512C40.0212 2.18512 40.7589 2.87682 41.6285 3.72222C42.498 4.56763 43.2241 5.25933 43.2419 5.25933C43.2822 5.25933 44.3157 4.26006 44.3157 4.22109C44.3157 4.18305 40.0017 -0.00671675 39.9694 8.08667e-06C39.9555 0.00289016 33.1376 6.62159 24.8186 14.7082ZM39.0441 11.5254C35.5464 14.9262 32.6846 17.7185 32.6846 17.7305C32.6846 17.7557 33.7057 18.7474 33.7316 18.7474C33.7411 18.7474 36.3749 16.1968 39.5845 13.0794C42.7942 9.96191 45.4298 7.41128 45.4413 7.41128C45.453 7.41128 50.5545 12.3575 56.778 18.4029L68.0936 29.3946L69.161 29.4028C69.748 29.4074 70.2283 29.4082 70.2283 29.4047C70.2283 29.3815 45.4519 5.33676 45.4304 5.33911C45.4157 5.34072 42.5418 8.12453 39.0441 11.5254ZM30.9895 19.3517L30.4614 19.8714L35.3614 24.6319L40.2613 29.3923L41.339 29.4017C41.9318 29.4069 42.4164 29.4111 42.416 29.4111C42.4155 29.4111 39.9632 27.0308 36.9664 24.1216L31.5176 18.8321L30.9895 19.3517ZM24.9783 25.1937L20.6373 29.4111H21.7037H22.7702L26.5801 25.7105C28.6756 23.6751 30.3901 21.9978 30.3901 21.983C30.3901 21.9682 30.2833 21.8552 30.1527 21.7319C30.0222 21.6086 29.9153 21.4919 29.9153 21.4725C29.9153 21.4532 29.8886 21.4374 29.856 21.4374C29.8234 21.4374 29.7967 21.4114 29.7967 21.3797C29.7967 21.348 29.7824 21.3221 29.765 21.3221C29.7476 21.3221 29.6541 21.2446 29.5573 21.1499C29.4605 21.0552 29.3673 20.9774 29.3502 20.977C29.3332 20.9766 27.3658 22.8741 24.9783 25.1937ZM64.4722 37.3155C64.1127 37.3496 63.5499 37.4459 63.404 37.4982C63.3605 37.5138 63.227 37.5572 63.1073 37.5946C62.9135 37.6551 62.6533 37.7703 62.3543 37.9277C62.0325 38.0972 61.6082 38.4809 61.4007 38.7902C61.2764 38.9755 61.1292 39.2811 61.1292 39.3541C61.1292 39.3827 61.1135 39.4226 61.0943 39.4426C61.0253 39.5148 60.9545 39.986 60.9561 40.363C60.9587 40.9569 61.0664 41.3409 61.3494 41.7656C61.5408 42.0527 61.67 42.1916 61.9205 42.3794C62.0184 42.4529 62.1074 42.522 62.1183 42.5331C62.1557 42.5714 62.2964 42.6517 62.3655 42.6743C62.4036 42.6867 62.4348 42.7088 62.4348 42.7234C62.4348 42.738 62.5325 42.7922 62.652 42.8438C62.7714 42.8954 62.8693 42.9506 62.8695 42.9665C62.8697 42.9823 62.8967 42.9953 62.9295 42.9953C62.9622 42.9953 63.0787 43.0373 63.1882 43.0887C63.2978 43.14 63.4402 43.1933 63.5045 43.207C63.5689 43.2207 63.6216 43.2479 63.6216 43.2673C63.6216 43.2868 63.6566 43.3027 63.6994 43.3027C63.7421 43.3027 63.8356 43.3269 63.9071 43.3566C63.9785 43.3862 64.1438 43.4405 64.2744 43.4772C64.4049 43.514 64.5473 43.5565 64.5909 43.5717C64.6344 43.5869 64.7679 43.6266 64.8876 43.6598C65.4397 43.8133 65.942 43.9652 66.0046 43.9974C66.0424 44.0169 66.0931 44.0328 66.1173 44.0328C66.1415 44.0328 66.2264 44.0605 66.3058 44.0944C66.3852 44.1282 66.4858 44.1701 66.5294 44.1874C66.6722 44.2441 67.2002 44.4946 67.2787 44.5428C67.4334 44.6379 67.7986 45.0165 67.8618 45.1472C67.8976 45.2212 67.948 45.352 67.9738 45.4379L68.0207 45.5939L68.0014 45.8221C67.9588 46.3266 67.843 46.5865 67.5214 46.8988C67.34 47.075 66.9519 47.2992 66.8282 47.2992C66.7835 47.2992 66.7469 47.3122 66.7469 47.328C66.7468 47.3438 66.6088 47.3883 66.4403 47.4268L66.1338 47.4968L65.5827 47.5231L65.0316 47.5493L64.5936 47.5059C64.1526 47.4623 63.7482 47.3944 63.6018 47.3396C63.5583 47.3233 63.4159 47.2781 63.2853 47.2391C63.1548 47.2001 63.0213 47.1553 62.9886 47.1394C62.956 47.1234 62.7958 47.0485 62.6326 46.9727C62.2934 46.8153 62.2537 46.7929 61.9805 46.6032L61.7805 46.4645L61.7318 46.5151C61.705 46.543 61.6831 46.5838 61.6831 46.6059C61.6831 46.6279 61.6689 46.6459 61.6515 46.6459C61.6341 46.6459 61.5762 46.7146 61.5229 46.7986C61.4696 46.8825 61.4126 46.9517 61.3963 46.9523C61.38 46.9529 61.3666 46.9793 61.3666 47.011C61.3666 47.0427 61.3493 47.0686 61.3281 47.0686C61.3069 47.0686 61.2642 47.1161 61.2332 47.1743C61.2022 47.2324 61.1219 47.3405 61.0548 47.4145C60.9149 47.5686 60.9029 47.6337 61.0007 47.7092C61.1877 47.8537 61.6475 48.1432 61.8413 48.2384C61.961 48.2972 62.0927 48.3624 62.1339 48.3833C62.2462 48.4401 62.7146 48.6111 62.8502 48.6448C62.9154 48.661 63.0757 48.7035 63.2062 48.7391C64.2425 49.0222 66.0672 49.0431 67.0648 48.7833C67.3076 48.7201 67.5192 48.6541 67.6371 48.6046C67.9997 48.4527 68.1145 48.4005 68.1316 48.3798C68.1425 48.3667 68.2124 48.3228 68.287 48.2825C68.4588 48.1894 68.5626 48.106 68.8719 47.8125C69.0087 47.6827 69.1206 47.5573 69.1206 47.5339C69.1206 47.5105 69.1373 47.4913 69.1575 47.4913C69.1778 47.4913 69.2069 47.4524 69.2222 47.4049C69.2375 47.3573 69.2612 47.3097 69.2748 47.2992C69.2885 47.2886 69.3478 47.1829 69.4066 47.0642C69.5173 46.8406 69.5725 46.661 69.6414 46.3001L69.6817 46.0887L69.6644 45.5201L69.647 44.9515L69.6014 44.9072C69.5763 44.8828 69.5557 44.8274 69.5556 44.7841C69.5554 44.7408 69.5287 44.6558 69.4962 44.5953C69.4637 44.5347 69.4371 44.469 69.4371 44.4493C69.4371 44.375 69.1436 43.9718 68.9344 43.7588C68.8148 43.637 68.5717 43.4425 68.3941 43.3266C68.073 43.1169 67.6202 42.88 67.5404 42.88C67.5174 42.88 67.4986 42.8627 67.4986 42.8416C67.4986 42.8204 67.482 42.8031 67.4616 42.8031C67.4413 42.8031 67.3745 42.7832 67.3133 42.7589C67.1427 42.6912 66.5788 42.4943 66.4898 42.4713C66.4463 42.4601 66.3751 42.4377 66.3316 42.4217C66.1161 42.3421 65.8375 42.2652 65.7648 42.2652C65.7201 42.2652 65.6737 42.2499 65.6618 42.2311C65.65 42.2125 65.5573 42.1851 65.4559 42.1703C65.3545 42.1556 65.243 42.1286 65.2081 42.1105C65.1732 42.0923 65.0379 42.049 64.9073 42.0141C64.7768 41.9793 64.6283 41.9347 64.5774 41.915C64.5264 41.8954 64.3751 41.8445 64.2411 41.802C64.017 41.7309 63.646 41.5762 63.5029 41.4943C63.4703 41.4756 63.3841 41.4312 63.3113 41.3955C63.1525 41.3177 62.7513 40.9364 62.7513 40.8632C62.7513 40.8347 62.729 40.8041 62.7018 40.7953L62.6524 40.7793V40.3764V39.9735L62.7662 39.7545L62.88 39.5356L63.1024 39.3378C63.4189 39.0565 63.7775 38.9057 64.4128 38.7868L64.7095 38.7313L65.2866 38.7306L65.8637 38.7298L66.2361 38.7846C66.6643 38.8475 66.885 38.8978 67.3008 39.0273C67.6373 39.132 68.3102 39.442 68.4265 39.5458C68.4691 39.5837 68.5222 39.6088 68.5447 39.6016C68.5901 39.5869 69.0019 39.0085 69.0019 38.9595C69.0019 38.9424 69.0153 38.9226 69.0316 38.9155C69.0797 38.8948 69.3976 38.4147 69.3976 38.3629C69.3976 38.3367 69.3753 38.3046 69.3481 38.2916C69.3209 38.2785 69.2452 38.234 69.18 38.1927C68.987 38.0705 68.3662 37.7864 68.1316 37.7128C68.0119 37.6753 67.8866 37.6315 67.8532 37.6155C67.8196 37.5995 67.7128 37.5738 67.6158 37.5582C67.5187 37.5426 67.4215 37.5168 67.3997 37.5008C67.378 37.4848 67.28 37.4622 67.1821 37.4504C67.0842 37.4387 66.9062 37.4112 66.7865 37.3892C66.1912 37.2801 65.1838 37.2479 64.4722 37.3155ZM74.7977 37.3129C74.4345 37.35 73.8722 37.4474 73.7295 37.4978C73.686 37.5131 73.5436 37.5618 73.413 37.6058C73.0136 37.7405 72.9009 37.7864 72.8465 37.8364C72.8177 37.8628 72.7687 37.8844 72.7377 37.8844C72.7066 37.8844 72.6812 37.9017 72.6812 37.9228C72.6812 37.944 72.662 37.9613 72.6386 37.9613C72.574 37.9613 72.1676 38.2765 71.988 38.4659C71.8129 38.6505 71.5734 38.9992 71.5734 39.0694C71.5734 39.094 71.5593 39.1141 71.5421 39.1141C71.5116 39.1141 71.4305 39.3393 71.3357 39.6873C71.3102 39.7807 71.2804 40.0141 71.2695 40.2061L71.2496 40.5551L71.2908 40.7665C71.3941 41.2963 71.4771 41.5088 71.7105 41.84C71.8565 42.0473 72.2705 42.4475 72.3709 42.4784C72.411 42.4908 72.4438 42.517 72.4438 42.5367C72.4438 42.5564 72.4705 42.5726 72.5031 42.5726C72.5358 42.5726 72.5625 42.5895 72.5625 42.6103C72.5625 42.631 72.607 42.6588 72.6614 42.6721C72.7158 42.6853 72.7603 42.7083 72.7603 42.7231C72.7603 42.7379 72.858 42.7922 72.9775 42.8438C73.0969 42.8954 73.1948 42.9487 73.1951 42.9623C73.1953 42.9758 73.2404 42.9979 73.2954 43.0113C73.3504 43.0247 73.4916 43.0785 73.6094 43.1308C73.7271 43.1831 73.8512 43.2258 73.8852 43.2258C73.9193 43.2258 73.9471 43.2431 73.9471 43.2643C73.9471 43.2854 73.9821 43.3027 74.0249 43.3027C74.0677 43.3027 74.1611 43.3271 74.2326 43.3569C74.304 43.3867 74.5227 43.4578 74.7186 43.5149C74.9144 43.572 75.1464 43.6427 75.2342 43.6721C75.3219 43.7014 75.4237 43.7254 75.4603 43.7254C75.4969 43.7254 75.5854 43.7497 75.6568 43.7793C75.7282 43.8089 75.8935 43.8629 76.0241 43.8993C76.1546 43.9358 76.2924 43.9807 76.3301 43.9992C76.3679 44.0177 76.4186 44.0328 76.4428 44.0328C76.467 44.0328 76.543 44.0567 76.6115 44.0859C76.6801 44.1151 76.8074 44.1682 76.8944 44.204C77.3584 44.3947 77.7741 44.6445 77.9663 44.8481C78.0119 44.8964 78.1009 45.0137 78.1641 45.1088L78.2791 45.2817L78.2788 45.7813L78.2784 46.2808L78.1472 46.5081C78.075 46.633 77.9345 46.8122 77.8349 46.9061C77.6481 47.0825 77.2665 47.2992 77.1428 47.2992C77.1041 47.2992 77.0725 47.3126 77.0725 47.329C77.0725 47.3453 76.9207 47.391 76.7352 47.4305L76.398 47.5023L75.8747 47.5257L75.3515 47.549L74.9164 47.5058C74.4776 47.4622 74.0733 47.3943 73.9273 47.3396C73.8838 47.3233 73.7414 47.2781 73.6108 47.2391C73.4803 47.2001 73.3468 47.1557 73.3141 47.1403C73.2815 47.1249 73.1302 47.0565 72.9779 46.9881C72.6973 46.8624 72.1663 46.5499 72.124 46.4857C72.097 46.4448 71.2569 47.545 71.2569 47.6213C71.2569 47.6738 71.2755 47.6891 71.6526 47.947C71.9057 48.1201 72.3137 48.3367 72.3867 48.3367C72.4145 48.3367 72.4431 48.3505 72.4504 48.3673C72.4741 48.4223 73.1287 48.6406 73.7493 48.8005C74.0131 48.8684 74.4442 48.9191 75.0153 48.9493L75.5889 48.9797L76.1428 48.9484C77.1322 48.8925 77.5188 48.8033 78.3174 48.4462C78.5692 48.3336 78.8811 48.1171 79.1115 47.895C79.3142 47.6994 79.5648 47.4038 79.5648 47.3601C79.5648 47.3469 79.6067 47.2716 79.658 47.1927C79.7092 47.1139 79.7637 47.0062 79.7791 46.9533C79.7946 46.9005 79.8223 46.8227 79.8409 46.7804C79.8594 46.7381 79.9028 46.5876 79.9373 46.4459L80 46.1882V45.7278V45.2674L79.9233 44.9556C79.8812 44.7842 79.7811 44.5149 79.7009 44.3573L79.5551 44.0707L79.2929 43.8071C79.1487 43.6622 78.919 43.4645 78.7824 43.3678C78.4707 43.1473 77.6064 42.7367 77.112 42.5744C76.9053 42.5065 76.7006 42.4375 76.6571 42.4211C76.6135 42.4046 76.48 42.3642 76.3604 42.3312C76.2407 42.2982 76.0473 42.2439 75.9305 42.2105C75.8138 42.1772 75.6934 42.1499 75.663 42.1499C75.6325 42.1499 75.5767 42.1336 75.5389 42.1137C75.5011 42.0938 75.3634 42.0491 75.2329 42.0145C74.8125 41.9028 73.8027 41.5273 73.7493 41.4629C73.7384 41.4497 73.6672 41.4054 73.5911 41.3644C73.4379 41.2819 73.1686 41.0308 73.0735 40.8818C73.0398 40.8289 72.991 40.6906 72.9651 40.5743L72.918 40.363L72.9714 40.0927L73.0247 39.8224L73.1396 39.6508C73.4489 39.1887 73.9052 38.9395 74.7186 38.7886L75.035 38.7298H75.6121H76.1892L76.5616 38.7843C76.7664 38.8142 77.023 38.8592 77.1318 38.8843C77.4307 38.953 78.0399 39.159 78.0549 39.1964C78.0622 39.2145 78.0955 39.2294 78.129 39.2294C78.2033 39.2294 78.6425 39.4535 78.7501 39.5464C78.793 39.5834 78.8422 39.6136 78.8594 39.6136C78.8766 39.6136 79.0278 39.4105 79.1953 39.1621C79.3629 38.9138 79.5145 38.7048 79.5324 38.6978C79.5502 38.6907 79.5648 38.6684 79.5648 38.6482C79.5648 38.628 79.6041 38.5597 79.6522 38.4966L79.7396 38.3818L79.6402 38.2964C79.5856 38.2495 79.5062 38.1898 79.4638 38.1638C79.3797 38.1123 78.8414 37.8581 78.7143 37.8098C78.6707 37.7933 78.5678 37.7514 78.4854 37.7168C78.4031 37.6822 78.3094 37.6538 78.2772 37.6538C78.245 37.6538 78.1877 37.6372 78.15 37.6169C78.0172 37.5457 77.1669 37.3815 76.7362 37.344C76.121 37.2904 75.168 37.2751 74.7977 37.3129ZM5.66423 37.5909C5.66423 37.622 5.6509 37.6532 5.63456 37.6603C5.60845 37.6715 5.4815 37.9127 5.2738 38.3455C5.23832 38.4195 5.19595 38.4858 5.17961 38.4928C5.16327 38.4999 5.14994 38.5211 5.14994 38.5399C5.14994 38.5765 4.7885 39.3125 4.75472 39.3447C4.7436 39.3552 4.70499 39.4244 4.66887 39.4984C4.5634 39.7144 2.65393 43.4698 2.61734 43.5333C2.59902 43.565 2.48271 43.7898 2.35884 44.0328C2.23498 44.2759 1.76198 45.2031 1.30766 46.0934C0.853377 46.9836 0.481698 47.7301 0.481698 47.7522C0.481698 47.7743 0.468366 47.7981 0.452027 47.8052C0.408707 47.8238 -0.0218779 48.6801 0.000869856 48.7023C0.0114723 48.7126 0.409063 48.721 0.884432 48.721H1.74869L1.83719 48.5385C1.88585 48.4381 1.9349 48.3473 1.94614 48.3367C1.9819 48.3031 2.34108 47.5741 2.34108 47.5351C2.34108 47.5146 2.35441 47.492 2.37075 47.4849C2.38709 47.4779 2.46859 47.3381 2.5519 47.1743L2.70342 46.8765H5.85872H9.01401L9.12387 47.0974C9.18428 47.2189 9.26285 47.3789 9.29846 47.4529C9.33406 47.5269 9.3724 47.596 9.38363 47.6066C9.41777 47.6387 9.65993 48.1404 9.65993 48.179C9.65993 48.1988 9.67326 48.2208 9.6896 48.2279C9.70594 48.2349 9.77268 48.3444 9.83796 48.4712L9.95664 48.7018L10.8369 48.7121L11.7171 48.7225V48.6751C11.7171 48.6491 11.005 47.2403 10.1347 45.5445C9.26432 43.8487 8.55221 42.4431 8.55221 42.4209C8.55221 42.3986 8.53441 42.3804 8.51265 42.3804C8.49089 42.3804 8.47309 42.3629 8.47309 42.3415C8.47309 42.3054 8.15933 41.6661 8.07732 41.535C8.05746 41.5033 7.7901 40.9846 7.48319 40.3822C7.17623 39.7798 6.91034 39.2611 6.89226 39.2294C6.87422 39.1977 6.67507 38.8086 6.44976 38.3647L6.04007 37.5578L5.85215 37.546L5.66423 37.5343V37.5909ZM13.3093 43.1202L13.3194 48.7018L15.575 48.7117L17.8306 48.7216L18.3443 48.6652C18.6268 48.6342 18.9737 48.5834 19.1151 48.5523C19.6398 48.4369 19.7688 48.404 19.8074 48.376C19.8292 48.3602 19.8974 48.3356 19.959 48.3213C20.0206 48.307 20.2044 48.2354 20.3674 48.1623C20.5304 48.0891 20.671 48.0293 20.6799 48.0293C20.6889 48.0293 20.8166 47.9578 20.9639 47.8703C21.8506 47.3436 22.6014 46.5549 22.9892 45.7429C23.1848 45.3333 23.2142 45.2618 23.2896 45.0127C23.3279 44.8859 23.3737 44.7389 23.3914 44.6861C23.409 44.6333 23.4536 44.4344 23.4905 44.2442L23.5576 43.8983L23.5574 43.1106L23.5571 42.3228L23.4924 42.0154C23.3919 41.5374 23.2494 41.0491 23.1617 40.8818C23.134 40.8289 23.1112 40.7716 23.111 40.7544C23.1106 40.7038 22.8981 40.2906 22.844 40.2354C22.8166 40.2074 22.7943 40.1599 22.7943 40.1297C22.7943 40.0995 22.7765 40.0748 22.7547 40.0748C22.733 40.0748 22.7152 40.0568 22.7152 40.0348C22.7152 40.0004 22.5761 39.7855 22.5171 39.7289C22.5061 39.7184 22.4441 39.6405 22.3792 39.556C22.2289 39.3601 21.8371 38.9804 21.6072 38.8077C21.5094 38.7342 21.4205 38.6651 21.4096 38.654C21.3275 38.57 20.6354 38.1931 20.3516 38.0776C19.9127 37.8991 19.9067 37.8969 19.6887 37.8326C19.2001 37.6883 19.0439 37.656 18.4623 37.5788L18.1854 37.5419L15.7424 37.5402L13.2993 37.5386L13.3093 43.1202ZM26.0085 43.1179L26.0185 48.7018L28.2742 48.7117L30.5298 48.7216L31.0435 48.6651C31.7196 48.5907 32.2523 48.4805 32.4566 48.3729C32.4944 48.353 32.554 48.3367 32.5891 48.3367C32.665 48.3367 32.82 48.2721 33.2978 48.0413C33.7478 47.8239 34.0304 47.659 34.1088 47.5682C34.1197 47.5556 34.1909 47.504 34.2671 47.4536C34.4446 47.3361 34.9984 46.7855 35.1277 46.5979C35.1824 46.5186 35.2404 46.4538 35.2568 46.4538C35.2731 46.4538 35.2969 46.4235 35.3097 46.3865C35.3327 46.32 35.415 46.1835 35.4546 46.1463C35.506 46.0981 35.8504 45.3713 35.9282 45.1472C36.0534 44.786 36.165 44.3401 36.1656 44.1986C36.1658 44.1313 36.1849 44.0281 36.2079 43.9692L36.2498 43.8622L36.2512 43.1763C36.2526 42.5362 36.2352 42.3471 36.1251 41.804C36.1015 41.6878 36.0721 41.5408 36.0598 41.4774C36.0475 41.414 36.0239 41.3448 36.0074 41.3237C35.9908 41.3025 35.9641 41.2253 35.948 41.152C35.9318 41.0787 35.9057 40.9923 35.8899 40.9599C35.8741 40.9275 35.8342 40.8405 35.8012 40.7665C35.6753 40.4841 35.4818 40.1276 35.3906 40.0101C35.3384 39.9428 35.2954 39.8736 35.295 39.8564C35.2947 39.8391 35.2458 39.7711 35.1863 39.7051C35.1268 39.6392 35.0069 39.5022 34.9198 39.4005C34.8328 39.2989 34.6835 39.1453 34.588 39.0592C34.4926 38.9732 34.3915 38.8811 34.3634 38.8547C34.3353 38.8283 34.2932 38.8067 34.2699 38.8067C34.2466 38.8067 34.2275 38.7908 34.2275 38.7714C34.2275 38.7519 34.1608 38.6965 34.0792 38.6481C33.9976 38.5997 33.9249 38.5465 33.9176 38.5297C33.9104 38.513 33.8792 38.4992 33.8484 38.4992C33.8176 38.4992 33.7923 38.4831 33.7923 38.4634C33.7923 38.4437 33.7523 38.4154 33.7033 38.4006C33.6544 38.3857 33.6054 38.363 33.5945 38.35C33.5499 38.2966 32.9059 38.0122 32.5857 37.9044C32.4769 37.8678 32.3523 37.8246 32.3088 37.8084C32.2653 37.7922 32.0873 37.7493 31.9132 37.7131C31.7391 37.6769 31.5255 37.6284 31.4384 37.6054L31.2802 37.5636L28.6394 37.5489L25.9985 37.5341L26.0085 43.1179ZM38.3121 43.1202L38.3221 48.7018L39.0342 48.7127C39.4259 48.7187 39.7864 48.7141 39.8353 48.7024L39.9244 48.6811V47.2984V45.9158H41.6562H43.3881L43.6301 46.1374C43.7632 46.2593 43.9248 46.402 43.9892 46.4544C44.2301 46.6506 44.6927 47.0547 44.8476 47.2041C44.9358 47.2892 45.0573 47.3957 45.1175 47.4408C45.1777 47.4858 45.3736 47.6532 45.5527 47.8127C46.0834 48.2852 46.1847 48.374 46.3969 48.5517L46.599 48.721H47.6266C48.1918 48.721 48.6658 48.7098 48.6799 48.6961C48.694 48.6824 48.6693 48.6406 48.625 48.6033C48.5066 48.5035 47.8964 47.9603 47.6782 47.7603C47.5744 47.6652 47.36 47.475 47.2016 47.3376C47.0433 47.2002 46.8359 47.0144 46.7407 46.9245C46.6455 46.8347 46.5594 46.7612 46.5494 46.7612C46.5393 46.7612 46.4633 46.6964 46.3803 46.6171C46.2973 46.5378 46.0801 46.3433 45.8975 46.1848C45.7149 46.0263 45.4846 45.8203 45.3856 45.727L45.2058 45.5575L45.2526 45.5421C45.2783 45.5337 45.4491 45.4526 45.6321 45.3619C46.8054 44.7804 47.5957 43.7375 47.8041 42.4957C47.8237 42.3795 47.8499 42.0959 47.8625 41.8655L47.8854 41.4466L47.8383 41.1546C47.7778 40.7788 47.6838 40.3955 47.6144 40.2419C47.5843 40.1753 47.5597 40.1022 47.5597 40.0794C47.5597 40.0266 47.3774 39.699 47.1828 39.4023C46.9923 39.1116 46.428 38.5602 46.1116 38.3552C45.8732 38.2009 45.243 37.8844 45.1741 37.8844C45.1546 37.8844 45.0825 37.8602 45.014 37.8306C44.8064 37.7411 44.3981 37.6469 43.9201 37.5781L43.6629 37.541L40.9825 37.5398L38.3021 37.5386L38.3121 43.1202ZM50.8037 43.1299V48.7213L55.0862 48.7115L59.3688 48.7018V48.0101V47.3184L55.8771 47.3086L52.3853 47.2988L52.3957 45.5793L52.406 43.8599L55.4225 43.8501L58.4391 43.8402V43.168V42.4957H55.4126H52.3862V40.7088V38.9219H55.8874H59.3885V38.2303V37.5386H55.0961H50.8037V43.1299ZM18.2151 38.9807C18.65 39.0504 19.0805 39.1519 19.1329 39.197C19.1536 39.2148 19.2042 39.2294 19.2455 39.2294C19.2867 39.2294 19.3677 39.2533 19.4255 39.2826C19.4832 39.3118 19.6017 39.368 19.6887 39.4074C19.7758 39.4469 19.8559 39.4878 19.8668 39.4984C19.8776 39.5089 19.9488 39.5503 20.025 39.5903C20.3768 39.7752 20.8611 40.1873 21.1134 40.5167C21.1782 40.6012 21.2402 40.6791 21.2512 40.6896C21.3319 40.7672 21.68 41.4533 21.7289 41.6311C21.7463 41.6945 21.8001 41.8847 21.8485 42.0538L21.9365 42.3612L21.9357 43.1298L21.9348 43.8983L21.8538 44.1865C21.6965 44.746 21.4075 45.4162 21.3235 45.4162C21.3056 45.4162 21.291 45.4347 21.291 45.4572C21.291 45.6112 20.3062 46.569 20.1479 46.569C20.1238 46.569 20.1041 46.5822 20.1041 46.5984C20.1041 46.6294 20.0935 46.6353 19.7013 46.8234C19.4025 46.9667 18.8871 47.1434 18.6404 47.1872C18.5424 47.2046 18.3733 47.2358 18.2645 47.2567L18.0667 47.2946L16.4744 47.2969L14.882 47.2992V43.1362C14.882 40.8465 14.8939 38.9616 14.9084 38.9476C14.9229 38.9335 15.5905 38.9219 16.3919 38.9219H17.8491L18.2151 38.9807ZM30.9835 38.998C31.6618 39.1184 31.8928 39.1889 32.3828 39.425C32.926 39.6869 33.0402 39.7662 33.4564 40.1705C33.8144 40.5182 33.9347 40.6713 34.1317 41.03C34.4235 41.5609 34.5306 41.912 34.6259 42.6494L34.6681 42.9761L34.6447 43.3603C34.595 44.1744 34.3945 44.8281 34.0142 45.4162C33.7351 45.848 33.3446 46.2398 32.922 46.5123C32.7588 46.6175 32.6194 46.7165 32.6121 46.7324C32.6048 46.7482 32.5764 46.7612 32.5488 46.7612C32.5212 46.7612 32.4203 46.801 32.3246 46.8496C31.9718 47.029 31.5489 47.1528 30.9242 47.2597C30.8154 47.2783 30.0098 47.2948 29.134 47.2964L27.5417 47.2992V43.1362C27.5417 40.8465 27.5535 38.9616 27.568 38.9476C27.5825 38.9335 28.2635 38.9225 29.0813 38.9231L30.5681 38.9244L30.9835 38.998ZM43.8014 38.9985C44.331 39.1017 44.553 39.1604 44.553 39.1974C44.553 39.215 44.5846 39.2294 44.6231 39.2294C44.712 39.2294 45.3047 39.5644 45.3047 39.6146C45.3047 39.6352 45.3223 39.6521 45.3439 39.6521C45.3797 39.6521 45.5774 39.8429 45.7765 40.0699C45.9722 40.293 46.1749 40.7775 46.2606 41.2276L46.3009 41.439L46.2791 41.8809C46.2671 42.1239 46.2319 42.4093 46.2008 42.5149C46.1321 42.7488 45.9405 43.1634 45.8931 43.181C45.8741 43.1881 45.8586 43.2172 45.8586 43.2459C45.8586 43.3291 45.3055 43.8569 45.0673 44.001C44.9477 44.0733 44.7696 44.1641 44.6717 44.2026C44.5738 44.2411 44.4581 44.2871 44.4146 44.3047C44.2788 44.3598 43.8356 44.4494 43.4885 44.4918L43.1558 44.5324H41.5401H39.9244V41.7272V38.9219L41.6749 38.9236L43.4255 38.9254L43.8014 38.9985ZM6.02654 40.7194C6.21896 41.1394 6.40087 41.5256 6.66415 42.073C6.74034 42.2315 6.8419 42.4477 6.88977 42.5534C6.93764 42.659 7.02863 42.8506 7.09196 42.9791C7.1553 43.1076 7.20713 43.233 7.20713 43.2577C7.20713 43.2824 7.22493 43.3027 7.24669 43.3027C7.26845 43.3027 7.28625 43.3281 7.28625 43.359C7.28625 43.4285 7.41372 43.7015 7.45438 43.719C7.47072 43.7261 7.48406 43.7486 7.48406 43.7691C7.48406 43.8061 7.52366 43.8952 7.78888 44.4555C7.86392 44.614 7.95258 44.8043 7.98589 44.8782C8.0192 44.9522 8.09793 45.1124 8.16087 45.2343C8.22381 45.3561 8.27528 45.4728 8.27528 45.4937V45.5315H5.84226H3.40924V45.4739C3.40924 45.4422 3.4236 45.4162 3.4412 45.4162C3.45877 45.4162 3.50597 45.3427 3.54608 45.2529C3.62279 45.0811 3.76493 44.7766 3.9631 44.3593C4.02837 44.2219 4.08178 44.0922 4.08178 44.0711C4.08178 44.0501 4.09958 44.0328 4.12134 44.0328C4.1431 44.0328 4.1609 44.0079 4.1609 43.9775C4.1609 43.947 4.2301 43.7784 4.31464 43.6028C4.39918 43.4272 4.50837 43.197 4.55727 43.0913C4.82569 42.5113 5.14428 41.8363 5.44681 41.2068C5.498 41.1003 5.552 40.9663 5.56679 40.909C5.58159 40.8517 5.60564 40.8049 5.62028 40.8049C5.63492 40.8049 5.66704 40.753 5.69169 40.6896L5.73647 40.5743L5.84871 40.5753L5.96094 40.5763L6.02654 40.7194ZM9.65993 53.3609C9.25518 53.4091 9.00578 53.5146 8.77324 53.736C8.57539 53.9244 8.49113 54.0857 8.42732 54.3981L8.37834 54.6378L8.42941 54.9329C8.45746 55.0951 8.50549 55.2522 8.53611 55.282C8.56673 55.3117 8.59177 55.3544 8.59177 55.3768C8.59177 55.4348 8.90565 55.7285 9.04673 55.8025C9.19781 55.8818 9.57879 55.9837 9.72536 55.9841C9.78728 55.9843 9.95949 55.9542 10.108 55.9172L10.3781 55.85L10.4948 55.7536L10.6114 55.6572L10.5154 55.5421L10.4194 55.427L10.3432 55.4941C10.3012 55.5309 10.2475 55.5611 10.2239 55.5611C10.2002 55.5611 10.1744 55.5798 10.1666 55.6026L10.1523 55.644L9.83447 55.6652L9.51656 55.6864L9.33537 55.6085C9.08277 55.5 8.92405 55.3511 8.80896 55.1149L8.71046 54.9126V54.6713V54.4301L8.77518 54.2655C8.81078 54.175 8.85529 54.1009 8.87408 54.1009C8.89287 54.1009 8.90826 54.0828 8.90826 54.0606C8.90826 54.0073 9.09582 53.8402 9.24454 53.7609C9.30981 53.726 9.45223 53.6797 9.56103 53.6579L9.75883 53.6182L9.95181 53.6665C10.058 53.6931 10.2058 53.7498 10.2804 53.7926C10.4548 53.8924 10.4607 53.8916 10.5429 53.7564L10.6121 53.6426L10.4624 53.5492C10.3801 53.4978 10.2148 53.4356 10.0951 53.4111C9.79836 53.3503 9.77311 53.3474 9.65993 53.3609ZM50.0323 53.3636C49.7934 53.3886 49.503 53.4919 49.4058 53.5862C49.351 53.6395 49.2779 53.7634 49.2435 53.8616L49.1809 54.0401L49.2406 54.2146L49.3004 54.3891L49.4891 54.514C49.593 54.5826 49.7051 54.6389 49.7384 54.6389C49.7717 54.6389 49.8158 54.6532 49.8365 54.6708C49.8571 54.6884 49.9898 54.7346 50.1312 54.7736C50.6408 54.914 50.8037 55.0402 50.8037 55.2943V55.4331L50.6752 55.5452L50.5466 55.6572H50.151H49.7554L49.5971 55.5843C49.5101 55.5441 49.428 55.4951 49.4147 55.4754L49.3905 55.4393L49.3081 55.5411C49.2628 55.5971 49.2341 55.664 49.2443 55.6899C49.2722 55.7606 49.4882 55.8571 49.7684 55.924C50.0847 55.9995 50.23 55.9992 50.5459 55.9221L50.7989 55.8604L50.9109 55.7588C51.0499 55.6328 51.1087 55.5121 51.1331 55.3023L51.1521 55.1396L51.0669 54.9762L50.9818 54.8129L50.8235 54.7095C50.7365 54.6527 50.6297 54.598 50.5861 54.588C50.5426 54.5779 50.4536 54.5522 50.3883 54.5307C50.3231 54.5092 50.1984 54.4709 50.1114 54.4455C49.8765 54.3771 49.685 54.288 49.607 54.211L49.5378 54.1425V54.0194V53.8964L49.6618 53.7888L49.7857 53.6813L49.962 53.6556C50.1948 53.6218 50.517 53.6609 50.7303 53.7491L50.9026 53.8203L50.991 53.7042L51.0793 53.5882L50.9706 53.5239C50.8216 53.4359 50.259 53.3398 50.0323 53.3636ZM54.7796 53.3518C54.7579 53.3575 54.6333 53.3846 54.5027 53.4121C53.9842 53.5212 53.6838 53.8223 53.5479 54.3692L53.4794 54.6451L53.5298 54.8821C53.5974 55.2003 53.6991 55.4065 53.8786 55.5895C54.0561 55.7704 54.1912 55.8458 54.4802 55.925C54.7533 55.9998 54.9293 55.9993 55.1939 55.923C55.5548 55.8189 55.7165 55.6923 55.9014 55.369C55.9584 55.2693 56.0653 54.7997 56.0653 54.6485L56.0654 54.562H55.4299H54.7944L54.8068 54.6836L54.8192 54.8051L55.2609 54.8085C55.5039 54.8103 55.7162 54.825 55.7328 54.8411C55.7495 54.8572 55.731 54.9696 55.6918 55.0908L55.6206 55.3113L55.4621 55.4541C55.3749 55.5326 55.2411 55.6169 55.1648 55.6413L55.0259 55.6858L54.7364 55.6678L54.4469 55.6497L54.2968 55.5426C54.1056 55.4061 53.9315 55.2133 53.9301 55.1365C53.9295 55.1037 53.9089 55.0574 53.8843 55.0334L53.8396 54.99L53.8386 54.6895L53.8377 54.3891L53.9253 54.2106C54.0205 54.0169 54.1982 53.8405 54.4087 53.7309L54.5423 53.6613L54.8785 53.6635L55.2148 53.6657L55.4086 53.768C55.5152 53.8243 55.6138 53.8703 55.6276 53.8703C55.6414 53.8703 55.6831 53.8204 55.7202 53.7594L55.7876 53.6485L55.7386 53.6105C55.5742 53.4831 54.9363 53.311 54.7796 53.3518ZM62.5732 53.3606C62.5297 53.367 62.3951 53.3908 62.2741 53.4136L62.0542 53.455L61.9352 53.557C61.7925 53.6792 61.6831 53.8819 61.6831 54.024C61.6831 54.1373 61.782 54.3532 61.8788 54.4514C61.9565 54.5303 62.1743 54.6389 62.2548 54.6389C62.2885 54.6389 62.3161 54.6561 62.3161 54.6773C62.3161 54.6984 62.3472 54.7157 62.3852 54.7157C62.4232 54.7157 62.5966 54.7618 62.7704 54.818L63.0866 54.9203L63.1958 55.0264L63.3051 55.1325V55.2352C63.3051 55.3856 63.1894 55.551 63.0341 55.6226L62.8981 55.6853L62.5576 55.6668L62.2172 55.6483L62.0787 55.5789C62.0026 55.5407 61.9266 55.4908 61.9098 55.468L61.8794 55.4266L61.8222 55.5035C61.7907 55.5457 61.7462 55.6015 61.7233 55.6274L61.6817 55.6746L61.8308 55.7651C61.9968 55.866 62.4368 55.9838 62.6474 55.9838C62.7228 55.9838 62.8945 55.9564 63.0291 55.923L63.2737 55.862L63.389 55.7623C63.5505 55.6225 63.6216 55.4648 63.6216 55.2464V55.0589L63.5544 54.9545C63.4188 54.7442 63.275 54.6503 62.9293 54.5465C62.1835 54.3225 62.0392 54.2367 62.0392 54.0174V53.8964L62.1631 53.7888L62.2871 53.6813L62.4601 53.6561C62.6886 53.6228 63.0338 53.6671 63.2381 53.756L63.4027 53.8276L63.4798 53.7094L63.5568 53.5912L63.4816 53.5379C63.3525 53.4461 62.768 53.3321 62.5732 53.3606ZM76.6571 53.3601C76.009 53.4544 75.7699 53.6106 75.523 54.1009L75.4359 54.2738L75.4369 54.6773L75.4378 55.0808L75.5471 55.2863C75.7412 55.6515 76.0392 55.8572 76.5087 55.9502L76.756 55.9992L77.0626 55.9262C77.2312 55.8861 77.3781 55.8436 77.3889 55.8317C77.3998 55.8199 77.4754 55.7671 77.557 55.7145C77.7369 55.5983 77.9348 55.3405 77.9681 55.1788C77.9816 55.1134 78.0081 55.0506 78.027 55.0393C78.046 55.0279 78.0615 54.866 78.0615 54.6794V54.3402L78.0024 54.2301C77.9699 54.1696 77.9432 54.0898 77.943 54.0528C77.9429 54.0158 77.925 53.9856 77.9032 53.9856C77.8815 53.9856 77.8637 53.9633 77.8637 53.9359C77.8637 53.8793 77.5753 53.6082 77.4312 53.5293C77.2513 53.4308 76.8195 53.3365 76.6571 53.3601ZM22.913 53.4142C22.8368 53.4343 22.7122 53.4803 22.636 53.5164C22.4827 53.5892 22.1613 53.8755 22.1613 53.9394C22.1613 53.9618 22.1384 54.003 22.1104 54.0309C21.9856 54.1552 21.9246 54.7428 22.0054 55.0423C22.0544 55.2243 22.1667 55.4458 22.2099 55.4458C22.2267 55.4458 22.2404 55.4631 22.2404 55.4843C22.2404 55.5341 22.3869 55.6764 22.4382 55.6764C22.46 55.6764 22.4778 55.6898 22.4778 55.7061C22.4778 55.7523 22.7113 55.8569 22.9723 55.9276L23.2097 55.9919L23.3877 55.9706C23.6565 55.9383 23.9484 55.8416 24.0709 55.7443L24.1806 55.6572L24.0809 55.5456L23.9812 55.4339L23.9119 55.4896C23.8738 55.5202 23.7909 55.5704 23.7277 55.6012L23.6127 55.6572L23.2727 55.6572L22.9328 55.6571L22.8141 55.5803C22.5898 55.4352 22.4827 55.3219 22.3759 55.1169L22.269 54.9115L22.2706 54.6497L22.2723 54.388L22.3718 54.2062C22.4914 53.9877 22.6426 53.8393 22.8511 53.7358L23.0059 53.659L23.3056 53.6599L23.6053 53.6609L23.8028 53.7681L24.0003 53.8753L24.0877 53.7688L24.1751 53.6623L24.1326 53.6126C24.1092 53.5852 24.0715 53.5629 24.0486 53.5629C24.0258 53.5629 23.979 53.5399 23.9447 53.5118C23.7976 53.3916 23.2096 53.3359 22.913 53.4142ZM39.0936 53.4612C38.9957 53.5097 38.8926 53.5914 38.8645 53.6426L38.8135 53.7358L38.8266 54.0021L38.8398 54.2685L38.8876 54.2839C38.9138 54.2925 38.9353 54.3221 38.9353 54.3497C38.9353 54.3774 38.962 54.41 38.9947 54.4222C39.0273 54.4343 39.054 54.4757 39.054 54.5141V54.5839L38.9254 54.6554C38.7373 54.7601 38.588 54.9284 38.5372 55.0929L38.4926 55.2375L38.5392 55.4056L38.5858 55.5736L38.7309 55.714L38.876 55.8544L39.1842 55.9272L39.4925 56L39.7777 55.929C39.9345 55.8899 40.1053 55.8258 40.1572 55.7864C40.2819 55.6918 40.3346 55.696 40.4622 55.8109L40.5689 55.907H40.7489H40.929L40.7234 55.7114C40.6103 55.6038 40.5178 55.5009 40.5178 55.4827C40.5178 55.4334 40.6104 55.2378 40.6454 55.2131C40.6621 55.2013 40.6873 55.0586 40.7015 54.8961L40.7272 54.6004H40.5867H40.4463L40.4268 54.783C40.3993 55.0401 40.3453 55.2263 40.2933 55.2431C40.2689 55.251 40.118 55.1356 39.9581 54.9867C39.7981 54.8378 39.6538 54.7159 39.6375 54.7159C39.5465 54.7154 39.632 54.594 39.7845 54.5072C39.8817 54.4518 40.0063 54.3491 40.0615 54.2789L40.1617 54.1512V53.9352V53.7193L40.0449 53.59L39.9282 53.4609L39.7733 53.4158C39.6881 53.391 39.5404 53.3712 39.445 53.3718L39.2716 53.3729L39.0936 53.4612ZM5.39672 53.438C5.38066 53.4433 5.37136 53.9966 5.37607 54.6677L5.38461 55.8878L5.54286 55.8995L5.70107 55.9113L5.71234 55.496L5.72358 55.0808L6.11068 55.0697L6.49779 55.0588L6.54708 55.1082C6.57422 55.1354 6.68448 55.27 6.79213 55.4074C6.89977 55.5448 7.04006 55.7134 7.10383 55.7821L7.21982 55.907H7.39291H7.56595L7.52718 55.8397C7.50586 55.8027 7.44295 55.7222 7.38733 55.6608C7.33174 55.5994 7.28621 55.5389 7.28617 55.5263C7.28613 55.5138 7.19775 55.4084 7.08971 55.2921C6.98171 55.1759 6.89273 55.071 6.89198 55.059C6.89123 55.0471 6.96402 54.9972 7.05371 54.9483C7.2569 54.8373 7.36462 54.7189 7.43116 54.5333C7.57703 54.1264 7.40418 53.6913 7.0291 53.5215L6.87085 53.4498L6.14838 53.4391C5.75103 53.4332 5.41278 53.4327 5.39672 53.438ZM11.5984 54.654V55.907H11.7567H11.9149V55.369V54.831H12.6853H13.4556L13.4666 55.3594L13.4776 55.8878L13.626 55.8997L13.7743 55.9116V54.6796V53.4476H13.6556C13.5903 53.4476 13.5236 53.4433 13.5073 53.438C13.4909 53.4327 13.4687 53.6791 13.4578 53.9856L13.438 54.5428H12.6864H11.9347L11.9237 53.9952L11.9128 53.4476H11.8182C11.7661 53.4476 11.6954 53.4371 11.661 53.4243L11.5984 53.4009V54.654ZM15.1293 53.437L15.0007 53.4525V54.6797V55.907H15.1392H15.2776V54.6581C15.2776 53.9712 15.2732 53.4119 15.2677 53.4153C15.2623 53.4187 15.2 53.4285 15.1293 53.437ZM16.2271 53.5533L16.2271 53.6782H16.6623H17.0975V54.7926V55.907H17.2557H17.414V54.7926V53.6782H17.8689H18.3239V53.5641V53.4501L17.2754 53.4392L16.2271 53.4284V53.5533ZM19.2829 53.438C19.2668 53.4433 19.2572 53.9966 19.2617 54.6677L19.2699 55.8878L20.2211 55.8981L21.1723 55.9083V55.7739V55.6395L20.3712 55.6292L19.57 55.6188L19.5588 55.2294L19.5476 54.84L19.6519 54.8145C19.7093 54.8006 20.017 54.7918 20.3357 54.795L20.9151 54.8009L20.9275 54.6824L20.9398 54.5639L20.2549 54.5533L19.57 54.5428V54.1201V53.6974L20.3712 53.687L21.1723 53.6766V53.5635V53.4503L20.2423 53.4393C19.7307 53.4333 19.299 53.4327 19.2829 53.438ZM27.8581 54.3159V55.2107L27.8947 55.2326C27.9148 55.2447 27.943 55.307 27.9575 55.371L27.9838 55.4874L28.1735 55.6716L28.3632 55.8559L28.5979 55.9198C28.727 55.955 28.8944 55.9838 28.97 55.9838C29.2443 55.9838 29.7353 55.7541 29.8264 55.583C29.8497 55.5393 29.9013 55.443 29.9411 55.369L30.0133 55.2345L30.0256 54.3314L30.0379 53.4284L29.8876 53.4324L29.7373 53.4364L29.7175 54.3162L29.6977 55.1961L29.6436 55.2921C29.5591 55.4421 29.33 55.6268 29.1962 55.6528C28.7688 55.7358 28.4453 55.6154 28.2596 55.3041L28.1951 55.1961L28.175 54.3172L28.1549 53.4384L28.0065 53.4297L27.8581 53.421V54.3159ZM31.2372 53.4444C31.2282 53.4532 31.2209 54.0109 31.2209 54.6837V55.907H31.3778H31.5347L31.5459 55.4939L31.5571 55.0808L31.9442 55.0697L32.3313 55.0588L32.3794 55.1083C32.42 55.1501 32.6115 55.3788 32.7906 55.5995C32.8163 55.6312 32.8847 55.7134 32.9426 55.7821L33.0477 55.907H33.2222C33.3182 55.907 33.3967 55.8909 33.3967 55.8713C33.3967 55.8516 33.3389 55.774 33.2682 55.6987C33.1975 55.6233 33.0773 55.4825 33.0011 55.3857C32.925 55.2888 32.8316 55.1738 32.7937 55.13L32.7247 55.0504L32.7937 54.9996C32.8316 54.9716 32.8822 54.9482 32.9059 54.9475C32.965 54.9458 33.1356 54.7945 33.2105 54.6773C33.2443 54.6244 33.2839 54.5011 33.2985 54.4033L33.3252 54.2253L33.279 54.0094C33.2536 53.8906 33.2163 53.7934 33.1961 53.7934C33.1759 53.7934 33.1594 53.7737 33.1594 53.7496C33.1594 53.693 33.0603 53.6179 32.8627 53.5245L32.7044 53.4498L31.979 53.4391C31.5801 53.4332 31.2463 53.4356 31.2372 53.4444ZM34.4253 54.6684V55.9083L35.3639 55.8981L36.3025 55.8878L36.3129 55.7629L36.3233 55.638H35.5326H34.7418V55.2386V54.8392L34.7941 54.8197C34.8229 54.809 35.13 54.7992 35.4766 54.7979L36.1067 54.7956V54.6761V54.5567L35.4341 54.5497L34.7616 54.5428L34.7504 54.1105L34.7392 53.6782H35.5313H36.3233L36.3136 53.562L36.3039 53.4458L35.3646 53.4371L34.4253 53.4284L34.4253 54.6684ZM46.4685 53.4444C46.4594 53.4532 46.452 54.0109 46.452 54.6837V55.907H47.4015H48.3509V55.7725V55.638H47.5639H46.7769L46.7529 55.5772C46.7397 55.5438 46.7289 55.3704 46.7289 55.1919V54.8675L46.8375 54.8274L46.9461 54.7873L47.5299 54.7996L48.1137 54.8118L48.1136 54.6869L48.1136 54.562H47.4687H46.8239L46.7764 54.5159L46.7289 54.4698V54.1348C46.7289 53.9505 46.7397 53.7724 46.7529 53.739L46.7769 53.6782H47.5639H48.3509V53.5533V53.4284H47.4179C46.9048 53.4284 46.4775 53.4356 46.4685 53.4444ZM52.1884 54.6658V55.907H52.3268H52.4653V54.6815V53.456L52.3268 53.4403L52.1884 53.4246V54.6658ZM59.0459 53.4691C59.036 53.4941 59.0334 53.8799 59.0401 54.3265L59.0523 55.1385L58.9883 55.1385C58.9223 55.1384 58.5578 54.8087 58.5578 54.7491C58.5578 54.7307 58.5433 54.7157 58.5256 54.7157C58.4835 54.7157 57.8061 54.0577 57.8061 54.0169C57.8061 53.9996 57.7906 53.9856 57.7717 53.9856C57.727 53.9856 57.3709 53.6397 57.3709 53.5962C57.3709 53.5779 57.3461 53.5629 57.3158 53.5629C57.2855 53.5629 57.2504 53.5369 57.2379 53.5052C57.2254 53.4735 57.179 53.4476 57.1348 53.4476H57.0544V54.6773V55.907H57.2127H57.3709V55.0231V54.1393H57.4267C57.4687 54.1393 58.1226 54.7349 58.1226 54.773C58.1226 54.801 59.2825 55.907 59.3117 55.907H59.349V54.6815V53.456L59.2064 53.4398L59.0638 53.4237L59.0459 53.4691ZM67.3892 54.3294L67.4011 55.2345L67.4598 55.369C67.492 55.443 67.5321 55.5208 67.5488 55.5419C67.7156 55.7526 67.8261 55.8273 68.109 55.92C68.357 56.0012 68.5111 56.0005 68.8092 55.9166L69.0483 55.8493L69.1933 55.711C69.392 55.5213 69.4088 55.4951 69.4871 55.2503L69.5558 55.0356V54.2416V53.4476H69.4371C69.3718 53.4476 69.3051 53.4475 69.2888 53.4474C69.2725 53.4473 69.2502 53.8407 69.2393 54.3216L69.2195 55.1961L69.1412 55.3113C69.0981 55.3747 69.0091 55.4736 68.9434 55.5311L68.8239 55.6356L68.6536 55.6607C68.56 55.6745 68.3909 55.6739 68.2778 55.6595L68.0723 55.6332L67.9098 55.4666L67.7474 55.3L67.7021 55.1253L67.6569 54.9507V54.2034V53.456L67.5171 53.4401L67.3773 53.4243L67.3892 54.3294ZM70.759 53.4444C70.75 53.4532 70.7426 54.0134 70.7426 54.6893V55.9181L71.4251 55.8972L72.1075 55.8764L72.2262 55.815C72.2915 55.7813 72.3671 55.7536 72.3943 55.7535C72.4215 55.7534 72.4438 55.736 72.4438 55.7148C72.4438 55.6937 72.461 55.6764 72.482 55.6764C72.5491 55.6764 72.7774 55.4283 72.8551 55.2711C72.8964 55.1876 72.9453 55.0892 72.9639 55.0525C72.9824 55.0158 72.9976 54.8521 72.9976 54.6887V54.3916L72.9318 54.2174C72.8615 54.0316 72.702 53.7957 72.6096 53.7411C72.5788 53.7229 72.5238 53.6796 72.4875 53.645C72.4511 53.6104 72.3596 53.557 72.2842 53.5264L72.1471 53.4706L71.4612 53.4495C71.084 53.4379 70.768 53.4356 70.759 53.4444ZM3.102 53.5917C3.06426 53.671 3.02146 53.7446 3.00686 53.7554C2.99226 53.7662 2.96809 53.8224 2.95314 53.8803C2.93818 53.9382 2.91005 53.9856 2.89067 53.9856C2.87124 53.9856 2.85538 54.0072 2.85538 54.0336C2.85542 54.0943 2.60844 54.5768 2.56856 54.594C2.55222 54.6011 2.53889 54.6232 2.53889 54.6432C2.53889 54.7001 1.97455 55.8094 1.93827 55.8237C1.92046 55.8308 1.90591 55.8533 1.90591 55.8738V55.9112L2.08979 55.8995L2.27363 55.8878L2.30298 55.8301C2.31916 55.7984 2.3651 55.7076 2.40505 55.6284L2.47777 55.4843H3.21159H3.94541L4.04459 55.686L4.14373 55.8878L4.32995 55.8994L4.51612 55.9112L4.48974 55.8418C4.47526 55.8037 4.4531 55.7638 4.44052 55.7533C4.40215 55.721 4.1609 55.2328 4.1609 55.1874C4.1609 55.164 4.14757 55.1391 4.13123 55.132C4.09135 55.1148 3.84437 54.6323 3.84441 54.5716C3.84441 54.5452 3.82855 54.5236 3.80912 54.5236C3.78974 54.5236 3.76161 54.4762 3.74666 54.4183C3.7317 54.3604 3.70721 54.3042 3.69226 54.2934C3.65511 54.2666 3.40924 53.7662 3.40924 53.7174C3.40924 53.6958 3.39286 53.6782 3.3728 53.6782C3.35278 53.6782 3.32466 53.6263 3.31033 53.5629L3.28426 53.4476H3.22741C3.19616 53.4476 3.13971 53.5125 3.102 53.5917ZM24.8515 53.5629V53.6782H25.3064H25.7614V54.7926V55.907H25.8993H26.0371L26.0476 54.8022L26.0581 53.6974L26.523 53.6865L26.9878 53.6757V53.5617V53.4476H25.9196H24.8515V53.5629ZM43.1288 54.6825V55.9175L43.8113 55.8969L44.4937 55.8765L44.6958 55.7789C44.9075 55.6769 45.1247 55.4946 45.2324 55.3287C45.3064 55.2149 45.4236 54.7945 45.423 54.6453C45.4227 54.5889 45.3957 54.4563 45.3629 54.3506C45.227 53.9123 45.0877 53.7401 44.7225 53.5586L44.499 53.4476H43.8139H43.1288V54.6825ZM64.3733 53.5629V53.6782H64.8084H65.2436V54.7926V55.907H65.4019H65.5601V54.7926V53.6782H66.0106H66.461L66.4784 53.5629L66.4959 53.4476H65.4346H64.3733V53.5629ZM74.0658 54.6773V55.907H74.224H74.3823V54.6773V53.4476H74.224H74.0658V54.6773ZM39.7805 53.7026L39.8848 53.8039V53.9468V54.0896L39.7896 54.1817C39.6303 54.3359 39.5749 54.3705 39.4484 54.3951L39.327 54.4187L39.2498 54.3382C39.2074 54.294 39.1727 54.2412 39.1727 54.221C39.1727 54.2007 39.1538 54.178 39.1308 54.1705C39.0699 54.1509 39.0752 53.8595 39.1381 53.7616C39.1676 53.7157 39.2141 53.6782 39.2416 53.6782C39.2689 53.6782 39.2914 53.6609 39.2914 53.6397V53.6013H39.4838H39.6762L39.7805 53.7026ZM77.2192 53.7499C77.4182 53.8493 77.5593 54.0019 77.6663 54.2334L77.7541 54.4235L77.7365 54.75L77.7188 55.0764L77.6726 55.0914C77.6471 55.0996 77.6263 55.1296 77.6263 55.1579C77.6263 55.2363 77.4344 55.4409 77.2538 55.5551L77.0922 55.6572H76.7362H76.3801L76.2615 55.5816C76.0684 55.4587 75.8815 55.2504 75.7964 55.0635L75.7169 54.8886L75.7181 54.6581L75.7193 54.4275L75.7977 54.2527C75.9283 53.9611 76.1912 53.7403 76.4988 53.6637C76.5423 53.6528 76.6885 53.651 76.8235 53.6595L77.0692 53.675L77.2192 53.7499ZM6.80028 53.7454C6.96829 53.8209 7.00347 53.849 7.09996 53.9845L7.16756 54.0795V54.2474V54.4152L7.05877 54.5647C6.99892 54.6469 6.92921 54.7144 6.90381 54.7149C6.87845 54.7153 6.85052 54.7365 6.84182 54.7619L6.82595 54.8081L6.27478 54.8099L5.72358 54.8118L5.71262 54.245L5.7017 53.6782H6.17612H6.65058L6.80028 53.7454ZM32.6262 53.7386C33.1087 53.9345 33.1386 54.4853 32.6813 54.7523L32.5857 54.8081L32.0615 54.824L31.5374 54.8399V54.259V53.6782H32.0073H32.4772L32.6262 53.7386ZM44.3354 53.7196C44.4225 53.7421 44.5777 53.8153 44.6804 53.8821L44.867 54.0036L44.9375 54.1387C44.9763 54.213 45.024 54.285 45.0435 54.2988C45.063 54.3125 45.08 54.4736 45.0811 54.6568L45.0833 54.9898L45.0411 55.0161C45.0179 55.0305 44.9865 55.081 44.9713 55.1282C44.9561 55.1754 44.8756 55.2808 44.7923 55.3625L44.641 55.511L44.4412 55.5745L44.2415 55.638H43.8476H43.4538L43.4298 55.5772C43.4166 55.5438 43.4058 55.1302 43.4058 54.6581C43.4058 54.186 43.4166 53.7724 43.4298 53.739L43.4538 53.6782L43.8155 53.6784C44.0145 53.6785 44.2484 53.697 44.3354 53.7196ZM72.0167 53.7379C72.2427 53.8127 72.5 54.0236 72.5915 54.209L72.6614 54.3506V54.7125V55.0744L72.6119 55.0904C72.5847 55.0992 72.5625 55.1289 72.5625 55.1564C72.5625 55.2345 72.2584 55.4818 72.0615 55.5638L71.8834 55.638H71.4712H71.0591V54.6581V53.6782H71.4477H71.8363L72.0167 53.7379ZM3.38795 54.3451C3.46494 54.5005 3.52792 54.6475 3.52792 54.6717C3.52792 54.6959 3.54572 54.7157 3.56748 54.7157C3.58924 54.7157 3.60704 54.7395 3.60704 54.7685C3.60704 54.7975 3.64356 54.9014 3.68822 54.9995C3.73285 55.0975 3.75852 55.1948 3.74523 55.2157L3.72106 55.2537H3.2519C2.78199 55.2537 2.65757 55.2368 2.65757 55.1728C2.65757 55.154 2.70932 55.0305 2.77262 54.8984C2.83587 54.7662 2.95139 54.524 3.02933 54.3603C3.10731 54.1965 3.18837 54.0624 3.20953 54.0624C3.2307 54.0624 3.31101 54.1896 3.38795 54.3451ZM39.7159 55.1172L40.0958 55.4802L40.0472 55.5371C39.9847 55.6102 39.6689 55.7149 39.5118 55.7146C39.1026 55.7139 38.7971 55.4491 38.8719 55.1598C38.9093 55.0149 39.1818 54.7598 39.3038 54.7553C39.3215 54.7547 39.507 54.9175 39.7159 55.1172Z" fill="black"/>
</svg>
