<svg width="1920" height="1160" viewBox="0 0 1920 1160" fill="none" xmlns="http://www.w3.org/2000/svg">
<path d="M472 1019.5C635 918 983 612 1424.5 655.5C1866 699 2249.5 423 2253.5 393" stroke="#DEAE8B" stroke-opacity="0.25"/>
<path d="M-17.5 546C30.5 436.5 -11.5 216 199.5 200C410.5 184 440 108 460 92.5C480 77 474 54.5 537.5 1M1478 1071C1544 1037.5 1743 1029.5 1776.5 908C1810 786.5 1949.5 747 2033 761" stroke="#DEAE8B" stroke-opacity="0.25"/>
<path d="M-5.5 977.5C28.5 946 326.5 492.5 784 399C1241.5 305.5 1513.5 72.4999 1732.5 98.4999C1907.7 119.3 2009.83 50.1666 2039 13" stroke="#DEAE8B" stroke-opacity="0.25"/>
<path fill-rule="evenodd" clip-rule="evenodd" d="M1353.16 1160C1403.5 1107.7 1461.54 1075.38 1585.52 1064.93C1649.01 1059.57 1699.1 1065.65 1739.98 1070.62C1805.98 1078.63 1847.95 1083.73 1883.52 1033.06C1900.55 1008.8 1912.26 983.205 1920.32 957.926V1160H1353.16Z" fill="#E3BCA0"/>
<path fill-rule="evenodd" clip-rule="evenodd" d="M1920.16 1106.8V1086.57C1884.71 1103.26 1845.97 1119.17 1787.01 1133.87C1785.51 1134.25 1784 1134.62 1782.49 1134.98C1787.85 1135.15 1793.18 1135.33 1798.47 1135.5L1798.47 1135.5C1823.87 1136.33 1848.49 1137.13 1872.47 1137.54C1891.27 1127.1 1906.44 1116.94 1920.16 1106.8ZM1870.74 1138.49C1847.18 1138.08 1823.03 1137.29 1798.12 1136.48L1798.11 1136.48C1791.73 1136.27 1785.29 1136.06 1778.81 1135.85C1714.83 1150.8 1644.87 1155.61 1567.82 1160H1826.82C1843.56 1152.65 1857.98 1145.5 1870.74 1138.49ZM1829.24 1160C1845.82 1152.66 1860.11 1145.53 1872.76 1138.53C1888.82 1138.79 1904.61 1138.88 1920.16 1138.67V1160H1829.24ZM1874.49 1137.57C1892.36 1127.58 1906.95 1117.83 1920.16 1108.11V1137.69C1905.16 1137.89 1889.96 1137.82 1874.49 1137.57ZM1353 1160C1403.34 1107.7 1461.38 1075.38 1585.37 1064.93C1648.85 1059.57 1698.94 1065.65 1739.82 1070.62C1805.82 1078.63 1847.8 1083.73 1883.37 1033.06C1900.39 1008.8 1912.1 983.205 1920.16 957.926V1085.47C1884.62 1102.21 1845.88 1118.16 1786.77 1132.9C1784.08 1133.57 1781.38 1134.23 1778.67 1134.86C1758.03 1134.2 1736.86 1133.6 1715.06 1133.22C1616.96 1131.54 1506.36 1134.65 1375.61 1160H1353ZM1380.58 1160H1550.04C1632.62 1155.37 1707.1 1151.1 1774.89 1135.73C1755.36 1135.12 1735.35 1134.56 1714.8 1134.2C1617.99 1132.55 1509.04 1135.56 1380.58 1160Z" fill="#DEAD8A"/>
</svg>
