<svg width="24" height="24" viewBox="0 0 24 24" fill="none" xmlns="http://www.w3.org/2000/svg">
<path d="M19.148 5.25H5.335L4.155 3.135C4.09 3.01831 3.99501 2.92111 3.87986 2.85342C3.76471 2.78574 3.63357 2.75003 3.5 2.75H2C1.80109 2.75 1.61032 2.82902 1.46967 2.96967C1.32902 3.11032 1.25 3.30109 1.25 3.5C1.25 3.69891 1.32902 3.88968 1.46967 4.03033C1.61032 4.17098 1.80109 4.25 2 4.25H3.06L4.224 6.338L6.91 12.28L6.913 12.286L7.15 12.809L4.453 15.686C4.35795 15.7874 4.29295 15.9133 4.26527 16.0495C4.23758 16.1857 4.2483 16.3269 4.29622 16.4574C4.34414 16.5879 4.42737 16.7025 4.53664 16.7884C4.64591 16.8743 4.7769 16.9282 4.915 16.944L7.373 17.225C10.4476 17.577 13.5524 17.577 16.627 17.225L19.085 16.945C19.2827 16.9225 19.4634 16.8223 19.5873 16.6665C19.7111 16.5108 19.768 16.3122 19.7455 16.1145C19.723 15.9168 19.6228 15.7361 19.467 15.6122C19.3113 15.4884 19.1127 15.4315 18.915 15.454L16.457 15.734C13.4953 16.0724 10.5047 16.0724 7.543 15.734L6.568 15.624L8.548 13.512C8.56681 13.4916 8.5845 13.4703 8.601 13.448L9.353 13.546C10.408 13.684 11.475 13.711 12.535 13.626C13.7595 13.5292 14.9526 13.1905 16.0453 12.6295C17.138 12.0686 18.1086 11.2965 18.901 10.358L19.48 9.673C19.4991 9.6501 19.5168 9.62605 19.533 9.601L20.611 7.959C21.375 6.795 20.54 5.25 19.148 5.25ZM6.5 18.5C6.10218 18.5 5.72064 18.658 5.43934 18.9393C5.15804 19.2206 5 19.6022 5 20C5 20.3978 5.15804 20.7794 5.43934 21.0607C5.72064 21.342 6.10218 21.5 6.5 21.5C6.89782 21.5 7.27936 21.342 7.56066 21.0607C7.84196 20.7794 8 20.3978 8 20C8 19.6022 7.84196 19.2206 7.56066 18.9393C7.27936 18.658 6.89782 18.5 6.5 18.5ZM16 20C16 19.6022 16.158 19.2206 16.4393 18.9393C16.7206 18.658 17.1022 18.5 17.5 18.5C17.8978 18.5 18.2794 18.658 18.5607 18.9393C18.842 19.2206 19 19.6022 19 20C19 20.3978 18.842 20.7794 18.5607 21.0607C18.2794 21.342 17.8978 21.5 17.5 21.5C17.1022 21.5 16.7206 21.342 16.4393 21.0607C16.158 20.7794 16 20.3978 16 20Z" fill="white"/>
</svg>
