<svg width="10" height="10" viewBox="0 0 10 10" fill="none" xmlns="http://www.w3.org/2000/svg">
<path id="Vector" d="M1.29913 4.24397C2.25906 6.33437 3.96472 7.99118 6.08213 8.88997L6.42213 9.04147C6.79864 9.20913 7.22225 9.23852 7.61831 9.12446C8.01437 9.0104 8.35746 8.7602 8.58713 8.41797L9.03163 7.75597C9.10119 7.65215 9.12934 7.52605 9.11056 7.4025C9.09177 7.27895 9.0274 7.16692 8.93013 7.08847L7.42413 5.87347C7.37168 5.83118 7.31123 5.79993 7.2464 5.7816C7.18157 5.76326 7.11371 5.75821 7.04688 5.76676C6.98006 5.7753 6.91565 5.79727 6.85752 5.83133C6.79939 5.86539 6.74875 5.91085 6.70863 5.96497L6.24263 6.59347C5.04643 6.00269 4.07819 5.03427 3.48763 3.83797L4.11563 3.37197C4.16975 3.33185 4.21521 3.28121 4.24927 3.22308C4.28333 3.16495 4.30529 3.10054 4.31384 3.03372C4.32239 2.96689 4.31734 2.89902 4.299 2.8342C4.28066 2.76937 4.24941 2.70892 4.20713 2.65647L2.99213 1.15047C2.91368 1.0532 2.80164 0.988826 2.6781 0.970039C2.55455 0.951253 2.42845 0.979412 2.32463 1.04897L1.65813 1.49597C1.31383 1.72686 1.06267 2.07248 0.949405 2.47125C0.836136 2.87003 0.868109 3.29607 1.03963 3.67347L1.29913 4.24397Z" fill="white"/>
</svg>
