<svg width="13" height="13" viewBox="0 0 13 13" fill="none" xmlns="http://www.w3.org/2000/svg">
<g id="basil:facebook-outline">
<path id="Vector" fill-rule="evenodd" clip-rule="evenodd" d="M5.36119 1.84761C5.85341 1.35531 6.52103 1.0787 7.21719 1.07861H8.56719C8.66664 1.07861 8.76203 1.11812 8.83235 1.18845C8.90268 1.25877 8.94219 1.35416 8.94219 1.45361V3.25361C8.94219 3.35307 8.90268 3.44845 8.83235 3.51878C8.76203 3.5891 8.66664 3.62861 8.56719 3.62861H7.21719C7.20734 3.62861 7.19759 3.63055 7.18849 3.63432C7.17939 3.63809 7.17112 3.64362 7.16415 3.65058C7.15719 3.65754 7.15167 3.66581 7.1479 3.67491C7.14413 3.68401 7.14219 3.69376 7.14219 3.70361V4.67861H8.56719C8.6242 4.67858 8.68046 4.69155 8.73171 4.71653C8.78296 4.74151 8.82783 4.77784 8.86292 4.82277C8.89802 4.8677 8.92241 4.92004 8.93424 4.97581C8.94606 5.03158 8.94502 5.08931 8.93119 5.14461L8.48119 6.94461C8.46089 7.02577 8.41403 7.09781 8.34807 7.14927C8.28212 7.20073 8.20085 7.22866 8.11719 7.22861H7.14219V10.4536C7.14219 10.5531 7.10268 10.6485 7.03235 10.7188C6.96203 10.7891 6.86664 10.8286 6.76719 10.8286H4.96719C4.86773 10.8286 4.77235 10.7891 4.70202 10.7188C4.6317 10.6485 4.59219 10.5531 4.59219 10.4536V7.22861H3.61719C3.51773 7.22861 3.42235 7.1891 3.35202 7.11878C3.2817 7.04845 3.24219 6.95307 3.24219 6.85361V5.05361C3.24219 5.00437 3.25189 4.9556 3.27073 4.91011C3.28958 4.86461 3.3172 4.82327 3.35202 4.78845C3.38684 4.75363 3.42818 4.726 3.47368 4.70716C3.51918 4.68831 3.56794 4.67861 3.61719 4.67861H4.59219V3.70361C4.59227 3.00745 4.86889 2.33983 5.36119 1.84761ZM7.21719 1.82861C6.71991 1.82861 6.24299 2.02616 5.89136 2.37779C5.53973 2.72942 5.34219 3.20633 5.34219 3.70361V5.05361C5.34219 5.15307 5.30268 5.24845 5.23235 5.31878C5.16203 5.3891 5.06664 5.42861 4.96719 5.42861H3.99219V6.47861H4.96719C5.06664 6.47861 5.16203 6.51812 5.23235 6.58845C5.30268 6.65877 5.34219 6.75416 5.34219 6.85361V10.0786H6.39219V6.85361C6.39219 6.75416 6.4317 6.65877 6.50202 6.58845C6.57235 6.51812 6.66773 6.47861 6.76719 6.47861H7.82419L8.08669 5.42861H6.76719C6.66773 5.42861 6.57235 5.3891 6.50202 5.31878C6.4317 5.24845 6.39219 5.15307 6.39219 5.05361V3.70361C6.39219 3.48481 6.47911 3.27497 6.63382 3.12025C6.78854 2.96553 6.99838 2.87861 7.21719 2.87861H8.19219V1.82861H7.21719Z" fill="white"/>
</g>
</svg>
