<svg width="13" height="13" viewBox="0 0 13 13" fill="none" xmlns="http://www.w3.org/2000/svg">
<g id="basil:instagram-outline">
<g id="Group 7">
<path id="Vector" d="M8.11719 3.30713C8.11719 3.17452 8.16987 3.04734 8.26363 2.95358C8.3574 2.85981 8.48458 2.80713 8.61719 2.80713C8.7498 2.80713 8.87697 2.85981 8.97074 2.95358C9.06451 3.04734 9.11719 3.17452 9.11719 3.30713C9.11719 3.43974 9.06451 3.56691 8.97074 3.66068C8.87697 3.75445 8.7498 3.80713 8.61719 3.80713C8.48458 3.80713 8.3574 3.75445 8.26363 3.66068C8.16987 3.56691 8.11719 3.43974 8.11719 3.30713Z" fill="white"/>
<path id="Vector_2" fill-rule="evenodd" clip-rule="evenodd" d="M6.11719 3.43213C5.4873 3.43213 4.88321 3.68235 4.43781 4.12775C3.99241 4.57315 3.74219 5.17724 3.74219 5.80713C3.74219 6.43702 3.99241 7.04111 4.43781 7.48651C4.88321 7.93191 5.4873 8.18213 6.11719 8.18213C6.74708 8.18213 7.35117 7.93191 7.79657 7.48651C8.24196 7.04111 8.49219 6.43702 8.49219 5.80713C8.49219 5.17724 8.24196 4.57315 7.79657 4.12775C7.35117 3.68235 6.74708 3.43213 6.11719 3.43213ZM4.49219 5.80713C4.49219 5.37615 4.66339 4.96283 4.96814 4.65808C5.27289 4.35333 5.68621 4.18213 6.11719 4.18213C6.54816 4.18213 6.96149 4.35333 7.26624 4.65808C7.57098 4.96283 7.74219 5.37615 7.74219 5.80713C7.74219 6.23811 7.57098 6.65143 7.26624 6.95618C6.96149 7.26092 6.54816 7.43213 6.11719 7.43213C5.68621 7.43213 5.27289 7.26092 4.96814 6.95618C4.66339 6.65143 4.49219 6.23811 4.49219 5.80713Z" fill="white"/>
<path id="Vector_3" fill-rule="evenodd" clip-rule="evenodd" d="M8.74646 1.22389C6.99914 1.03019 5.23577 1.03019 3.48846 1.22389C2.48246 1.33639 1.66996 2.12889 1.55196 3.13989C1.34466 4.91218 1.34466 6.7026 1.55196 8.47489C1.66996 9.48589 2.48196 10.2784 3.48846 10.3909C5.23579 10.5844 6.99913 10.5844 8.74646 10.3909C9.75246 10.2784 10.565 9.48589 10.683 8.47489C10.8903 6.7026 10.8903 4.91218 10.683 3.13989C10.565 2.12889 9.75296 1.33639 8.74646 1.22389ZM3.57146 1.96889C5.26361 1.78133 6.97131 1.78133 8.66346 1.96889C9.32846 2.04389 9.86096 2.56839 9.93846 3.22739C10.1389 4.94155 10.1389 6.67323 9.93846 8.38739C9.89837 8.70991 9.75073 9.0095 9.51938 9.23776C9.28803 9.46603 8.98649 9.60964 8.66346 9.64539C6.97131 9.83297 5.26361 9.83297 3.57146 9.64539C3.24843 9.60964 2.94689 9.46603 2.71554 9.23776C2.48419 9.0095 2.33655 8.70991 2.29646 8.38739C2.09598 6.67323 2.09598 4.94155 2.29646 3.22739C2.33655 2.90487 2.48419 2.60528 2.71554 2.37702C2.94689 2.14875 3.24843 2.00464 3.57146 1.96889Z" fill="white"/>
</g>
</g>
</svg>
