<svg width="10" height="12" viewBox="0 0 10 12" fill="none" xmlns="http://www.w3.org/2000/svg">
<g id="Group">
<path id="Vector" fill-rule="evenodd" clip-rule="evenodd" d="M2.625 5.28711C2.625 4.65722 2.87522 4.05313 3.32062 3.60773C3.76602 3.16233 4.37011 2.91211 5 2.91211C5.62989 2.91211 6.23398 3.16233 6.67938 3.60773C7.12478 4.05313 7.375 4.65722 7.375 5.28711C7.375 5.917 7.12478 6.52109 6.67938 6.96649C6.23398 7.41189 5.62989 7.66211 5 7.66211C4.37011 7.66211 3.76602 7.41189 3.32062 6.96649C2.87522 6.52109 2.625 5.917 2.625 5.28711ZM5 3.66211C4.56902 3.66211 4.1557 3.83331 3.85095 4.13806C3.54621 4.44281 3.375 4.85613 3.375 5.28711C3.375 5.71809 3.54621 6.13141 3.85095 6.43616C4.1557 6.7409 4.56902 6.91211 5 6.91211C5.43098 6.91211 5.8443 6.7409 6.14905 6.43616C6.45379 6.13141 6.625 5.71809 6.625 5.28711C6.625 4.85613 6.45379 4.44281 6.14905 4.13806C5.8443 3.83331 5.43098 3.66211 5 3.66211Z" fill="white"/>
<path id="Vector_2" fill-rule="evenodd" clip-rule="evenodd" d="M0.761212 4.71561C0.846675 3.67901 1.31882 2.71245 2.08392 2.00785C2.84901 1.30324 3.8511 0.912106 4.89121 0.912109H5.10721C6.14733 0.912106 7.14941 1.30324 7.91451 2.00785C8.6796 2.71245 9.15175 3.67901 9.23721 4.71561C9.33232 5.87025 8.97561 7.01674 8.24221 7.91361L5.84571 10.8441C5.74315 10.9695 5.61401 11.0706 5.46761 11.14C5.32121 11.2094 5.16122 11.2454 4.99921 11.2454C4.8372 11.2454 4.67721 11.2094 4.53081 11.14C4.38442 11.0706 4.25527 10.9695 4.15271 10.8441L1.75621 7.91361C1.02277 7.01677 0.666054 5.87026 0.761212 4.71561ZM4.89121 1.66211C4.03945 1.66224 3.21888 1.98262 2.59237 2.55967C1.96586 3.13672 1.57923 3.92823 1.50921 4.77711C1.43001 5.73804 1.72685 6.6922 2.33721 7.43861L4.73371 10.3696C4.76593 10.409 4.80651 10.4408 4.85251 10.4626C4.89852 10.4845 4.9488 10.4958 4.99971 10.4958C5.05063 10.4958 5.10091 10.4845 5.14691 10.4626C5.19292 10.4408 5.2335 10.409 5.26571 10.3696L7.66221 7.43861C8.27221 6.69205 8.56869 5.73791 8.48921 4.77711C8.41919 3.92815 8.03248 3.13656 7.40587 2.5595C6.77925 1.98244 5.95856 1.66211 5.10671 1.66211H4.89071H4.89121Z" fill="white"/>
</g>
</svg>
