<svg width="13" height="13" viewBox="0 0 13 13" fill="none" xmlns="http://www.w3.org/2000/svg">
<g id="basil:youtube-outline" clip-path="url(#clip0_551_1174)">
<g id="Group">
<path id="Vector" fill-rule="evenodd" clip-rule="evenodd" d="M5.31019 4.03444C5.25329 4.00028 5.18834 3.98184 5.12198 3.98099C5.05562 3.98014 4.99022 3.99692 4.93247 4.02961C4.87471 4.0623 4.82667 4.10973 4.79324 4.16706C4.75981 4.22439 4.74219 4.28957 4.74219 4.35594V7.35594C4.74219 7.4223 4.75981 7.48748 4.79324 7.54481C4.82667 7.60214 4.87471 7.64957 4.93247 7.68226C4.99022 7.71495 5.05562 7.73173 5.12198 7.73088C5.18834 7.73004 5.25329 7.71159 5.31019 7.67744L7.81019 6.17744C7.86569 6.14411 7.91162 6.09699 7.94351 6.04065C7.97539 5.98431 7.99215 5.92067 7.99215 5.85594C7.99215 5.7912 7.97539 5.72756 7.94351 5.67122C7.91162 5.61488 7.86569 5.56776 7.81019 5.53444L5.31019 4.03444ZM6.88819 5.85594L5.49219 6.69344V5.01844L6.88819 5.85594Z" fill="white"/>
<path id="Vector_2" fill-rule="evenodd" clip-rule="evenodd" d="M8.63287 2.17683C6.95876 2.04587 5.27697 2.04587 3.60287 2.17683L2.48237 2.26483C2.15128 2.29064 1.83836 2.42649 1.59343 2.65076C1.34851 2.87502 1.18567 3.1748 1.13087 3.50233C0.870441 5.06086 0.870441 6.6518 1.13087 8.21033C1.18567 8.53786 1.34851 8.83764 1.59343 9.0619C1.83836 9.28617 2.15128 9.42202 2.48237 9.44783L3.60237 9.53583C5.27687 9.66683 6.95887 9.66683 8.63337 9.53583L9.75337 9.44783C10.0844 9.42202 10.3974 9.28617 10.6423 9.0619C10.8872 8.83764 11.0501 8.53786 11.1049 8.21033C11.3649 6.65183 11.3649 5.06083 11.1049 3.50233C11.0501 3.1748 10.8872 2.87502 10.6423 2.65076C10.3974 2.42649 10.0844 2.29064 9.75337 2.26483L8.63287 2.17683ZM3.66137 2.92483C5.29687 2.79687 6.93986 2.79687 8.57537 2.92483L9.69537 3.01233C10.0334 3.03883 10.3099 3.29233 10.3654 3.62633C10.612 5.10277 10.612 6.60989 10.3654 8.08633C10.3383 8.24879 10.2576 8.39751 10.1362 8.50879C10.0147 8.62007 9.85957 8.6875 9.69537 8.70033L8.57537 8.78783C6.93987 8.91583 5.29686 8.91583 3.66137 8.78783L2.54137 8.70033C2.37716 8.6875 2.22198 8.62007 2.10056 8.50879C1.97913 8.39751 1.89845 8.24879 1.87137 8.08633C1.6247 6.60989 1.6247 5.10277 1.87137 3.62633C1.89845 3.46387 1.97913 3.31515 2.10056 3.20387C2.22198 3.09259 2.37716 3.02516 2.54137 3.01233L3.66137 2.92483Z" fill="white"/>
</g>
</g>
<defs>
<clipPath id="clip0_551_1174">
<rect width="12" height="12" fill="white" transform="translate(0.117188 0.0786133)"/>
</clipPath>
</defs>
</svg>
