<svg width="13" height="13" viewBox="0 0 13 13" fill="none" xmlns="http://www.w3.org/2000/svg">
<g id="basil:whatsapp-outline">
<g id="Group 6">
<path id="Vector" d="M4.5415 4.08111C4.633 4.08361 4.7345 4.08861 4.831 4.30261C4.895 4.44511 5.0025 4.70761 5.0905 4.92161C5.159 5.08811 5.215 5.22511 5.229 5.25311C5.261 5.31711 5.281 5.39061 5.239 5.47711L5.225 5.50611C5.19634 5.57329 5.15756 5.63568 5.11 5.69111C5.08583 5.71916 5.062 5.7475 5.0385 5.77611C4.996 5.82811 4.9535 5.87911 4.9175 5.91511C4.853 5.97911 4.7865 6.04811 4.8605 6.17611C4.935 6.30411 5.1945 6.72511 5.578 7.06461C5.85869 7.31733 6.18049 7.52024 6.5295 7.66461C6.5645 7.67961 6.593 7.69211 6.6145 7.70261C6.743 7.76661 6.8195 7.75661 6.8935 7.67061C6.968 7.58411 7.215 7.29611 7.302 7.16811C7.386 7.04011 7.472 7.06011 7.591 7.10411C7.71 7.14861 8.343 7.45911 8.4715 7.52261L8.543 7.55761C8.6325 7.60011 8.693 7.62961 8.719 7.67261C8.751 7.72711 8.751 7.98261 8.645 8.28361C8.536 8.58361 8.0115 8.87161 7.774 8.89361L7.7065 8.90161C7.4885 8.92761 7.2125 8.96161 6.2285 8.57411C5.0155 8.09711 4.215 6.91411 4.0535 6.67461C4.04488 6.6618 4.03604 6.64913 4.027 6.63661L4.024 6.63261C3.9505 6.53411 3.5 5.93161 3.5 5.30961C3.5 4.71461 3.7935 4.40461 3.927 4.26361L3.9505 4.23861C3.99371 4.1898 4.04651 4.1504 4.1056 4.12288C4.1647 4.09535 4.22883 4.08028 4.294 4.07861C4.3805 4.07861 4.4675 4.07861 4.5415 4.08111Z" fill="white"/>
<path id="Vector_2" fill-rule="evenodd" clip-rule="evenodd" d="M1.55 10.7441C1.54058 10.778 1.54026 10.8138 1.54909 10.8479C1.55792 10.8819 1.57557 10.9131 1.60027 10.9381C1.62497 10.9632 1.65584 10.9813 1.68976 10.9906C1.72369 10.9999 1.75947 11.0001 1.7935 10.9911L4.097 10.3891C4.82784 10.785 5.64584 10.9924 6.477 10.9926H6.479C9.222 10.9926 11.458 8.76914 11.458 6.03664C11.4597 5.3849 11.3318 4.73933 11.0817 4.13751C10.8315 3.53569 10.4642 2.98963 10.001 2.53114C9.5387 2.06878 8.98952 1.70242 8.38507 1.45314C7.78061 1.20386 7.13283 1.07658 6.479 1.07864C3.736 1.07864 1.5 3.30164 1.5 6.03414C1.5 6.90364 1.729 7.75764 2.165 8.51114L1.55 10.7441ZM2.8885 8.71014C2.91494 8.61418 2.92201 8.51392 2.9093 8.4152C2.8966 8.31648 2.86437 8.22128 2.8145 8.13514C2.44457 7.49675 2.24983 6.77197 2.25 6.03414C2.25 3.71914 4.1465 1.82864 6.479 1.82864C7.614 1.82864 8.673 2.26714 9.472 3.06264C9.86517 3.45146 10.177 3.91469 10.3892 4.4253C10.6014 4.93592 10.7098 5.48368 10.708 6.03664C10.708 8.35164 8.8115 10.2426 6.479 10.2426H6.4765C5.77035 10.2423 5.07542 10.066 4.4545 9.72964C4.28714 9.63904 4.0916 9.61544 3.9075 9.66364L2.5265 10.0241L2.8885 8.71014Z" fill="white"/>
</g>
</g>
</svg>
