<svg width="24" height="24" viewBox="0 0 24 24" fill="none" xmlns="http://www.w3.org/2000/svg">
<path d="M4.43951 4.44C4.57864 4.30067 4.74387 4.19014 4.92576 4.11472C5.10764 4.03931 5.30261 4.00049 5.49951 4.00049C5.69641 4.00049 5.89138 4.03931 6.07326 4.11472C6.25515 4.19014 6.42038 4.30067 6.55951 4.44L11.9995 9.878L17.4395 4.44C17.5787 4.3008 17.744 4.19038 17.9258 4.11504C18.1077 4.03971 18.3026 4.00093 18.4995 4.00093C18.6964 4.00093 18.8913 4.03971 19.0732 4.11504C19.2551 4.19038 19.4203 4.3008 19.5595 4.44C19.6987 4.5792 19.8091 4.74445 19.8845 4.92633C19.9598 5.1082 19.9986 5.30314 19.9986 5.5C19.9986 5.69686 19.9598 5.89179 19.8845 6.07367C19.8091 6.25554 19.6987 6.4208 19.5595 6.56L14.1215 12L19.5595 17.44C19.8406 17.7211 19.9986 18.1024 19.9986 18.5C19.9986 18.8976 19.8406 19.2789 19.5595 19.56C19.2784 19.8411 18.8971 19.9991 18.4995 19.9991C18.1019 19.9991 17.7206 19.8411 17.4395 19.56L11.9995 14.122L6.55951 19.56C6.27838 19.8411 5.89709 19.9991 5.49951 19.9991C5.10193 19.9991 4.72064 19.8411 4.43951 19.56C4.15838 19.2789 4.00044 18.8976 4.00044 18.5C4.00044 18.1024 4.15838 17.7211 4.43951 17.44L9.87751 12L4.43951 6.56C4.30018 6.42087 4.18965 6.25563 4.11423 6.07375C4.03882 5.89186 4 5.6969 4 5.5C4 5.3031 4.03882 5.10813 4.11423 4.92624C4.18965 4.74436 4.30018 4.57913 4.43951 4.44Z" fill="#333333"/>
</svg>
